<svg xmlns="http://www.w3.org/2000/svg" fill="none" viewBox="0 0 281 241">
  <path fill="#EDB98A" fill-rule="evenodd" d="M49.4 110.3c3.8-2.8 5.7-7.3 7.2-8.1 1-.6 1-4.5 3.1-6A48.5 48.5 0 0 1 75 92.8c3.2-.2 8.6.3 11.6 1.4 5 2 7 5.7 9.1 10.4 0 0-48.9 7.8-46.2 5.8Z" clip-rule="evenodd"/>
  <path fill="#78E185" fill-rule="evenodd" d="M121 113.6H43l-27 24L4 238.9l17 5.3 105.5 1.8 33-9.3 2-70.4-40.4-52.6Z" clip-rule="evenodd"/>
  <path fill="#000" fill-rule="evenodd" d="M14.9 220.4c.5-.3 1.1-.6 1.7-.6 1.1 0 1.1-1.7 0-1.6-.9 0-1.7.4-2.5.8-1 .5-.2 1.9.8 1.4m1.7-46.7c-.7 0-1.4 0-2 .6-.3.3-.3.8 0 1.2.3.3.9.3 1.2 0-.1 0 0 0 0 0l.3-.1h.5c.5 0 .9-.4.9-.9 0-.4-.4-.8-.9-.8m7.8 18.6c.3 1 1.9.6 1.6-.4-.3-1.6-.2-3.1 0-4.6.2-1-1.4-1.5-1.6-.5-.3 1.9-.4 3.7 0 5.5m2.1-59.7c1.3-.3 2.5-.3 3.8-.3 1 0 1-1.7 0-1.7-1.4 0-2.8 0-4.2.4-1 .3-.6 1.9.4 1.6m4.2 40.5 2.1-1.1c1-.5.1-2-.8-1.4l-2.2 1c-1 .5 0 2 .9 1.5m.3 32.7a6.3 6.3 0 0 0 3.7 2.5c1 .3 1.5-1.3.4-1.6-1-.3-2-.8-2.7-1.8-.6-.8-2 0-1.4.9m5.7-58.5c.3-.5.6-.6 1-.7 1.2 0 1.2-1.6 0-1.6-1 0-2 .5-2.4 1.5-.5 1 1 1.7 1.4.8m10.6 11.3c.2.3.8.3 1.1 0l.5-.7.1-.2.1-.1c.4-.4.4-1 0-1.3a.8.8 0 0 0-1.1 0l-.5.7-.1.3h-.1v.1c-.4.4-.4.9 0 1.2M48 183a4 4 0 0 0 3.4 0c.4-.2.5-.8.3-1.1-.3-.4-.7-.5-1.2-.3-.4.2-1.1.2-1.6 0-.4-.2-1-.1-1.2.3-.2.3 0 1 .3 1.1m3 17.4c.2.4.6.6 1 .7.5 0 .9-.4.9-.9 0-.3-.2-.5-.4-.6 0-.6-.4-.9-.8-1-.5 0-.8.5-.8 1v.8m4.4 27.6c1.3 0 2.6.3 4 .3 1 0 1-1.6 0-1.6-1.4 0-2.7-.4-4-.4-1.1 0-1.1 1.6 0 1.7m5.5-106.5c.8.8 1.7 1.2 2.7 1.6 1 .5 1.8-1 .8-1.4-.8-.4-1.7-.7-2.3-1.3-.8-.8-2 .4-1.2 1.1m2 19.2c.6-.3 1.2-.6 1.8-.6 1 0 1-1.7 0-1.7s-1.8.4-2.6.9c-1 .4 0 1.9.9 1.4m10 76.8c.2-.5.6-.6 1-.7 1 0 1-1.6 0-1.6s-2 .5-2.5 1.5 1 1.8 1.4.8m3.5-36c.3-.4.3-1 0-1.2l-1-1.1a.8.8 0 0 0-1.2 0c-.4.3-.4.9 0 1.2l1 1c.4.4.9.4 1.2 0m4 56.2a10 10 0 0 0 3.5-.7c1-.3.6-2-.4-1.6-1 .3-2 .7-3 .7s-1 1.7 0 1.6m5.4-35.5c1 0 2-.5 2.7-1.3.8-.7-.4-1.9-1.2-1.2-.4.5-1 .9-1.5.9-1.1 0-1.1 1.7 0 1.6m-3.4-45.6c0 .4-.2.9-.5 1.2-.7.8.5 2 1.2 1.2a4 4 0 0 0 1-2.4c0-1.1-1.7-1.1-1.7 0m12.7-36.2a4 4 0 0 1 1.5-1.9c1-.5 0-1.9-.9-1.4s-1.6 1.5-2 2.5c-.5 1 .9 1.8 1.4.8m2.1 17.3 1.2-.2.5-.1h.1c.5-.1.9-.4.9-1 0-.3-.4-.8-.9-.7-.6 0-1.1.3-1.8.3-1 0-1 1.7 0 1.7m5.4 26.5h1.8c1 0 1-1.6 0-1.6h-1.8c-1 0-1 1.6 0 1.6m2.1 73.4c.6.3 1.2.6 1.6 1 .8.7 2-.5 1.2-1.2-.5-.5-1.3-.9-2-1.2-.4-.2-.8-.1-1 .3-.3.4-.2 1 .2 1.1m4-21h1.1c1 0 1-1.7 0-1.7-.8 0-1.7 0-2.4.6a1 1 0 0 0 0 1.2c.3.3.9.3 1.2 0h.1m1-28.3-.2-1.3c0-1.1-1.6-1.1-1.6 0 0 .8.1 1.4.5 2.2.2.4.7.5 1 .3.5-.3.6-.8.4-1.2m4.8-39c1 .4 1.8.9 2.7 1.4.9.6 1.7-.8.8-1.4l-3-1.5c-1-.4-1.5 1.2-.5 1.6m5.6-28c.7 0 1.5.3 2 .6 1 .5 1.9-1 1-1.4-1-.4-2-.8-3-.8s-1 1.6 0 1.6m2.5 74.6c.3 0 .5-.1.7-.3.5 0 .8-.4.9-.9 0-.4-.4-.8-.9-.8-.3 0-.6 0-.8.2-.5.1-.7.5-.7 1s.4.8.8.8m4-57.4c1.1.4 1.5-1.3.5-1.6l-3.6-1c-1-.4-1.4 1.2-.4 1.5l3.6 1.1m3.7 31.4c.3 1 2 .5 1.6-.5-.3-1-.3-2-.3-3s-1.7-1-1.7 0c0 1.2 0 2.3.4 3.5m11.1 37.5c0 .4.4.7.8.7.5 0 .9-.4.9-.8 0-.8-.7-1.5-1.6-1.5-.4 0-.8.4-.8.8s.3.7.7.8m5.6-47.7c1 .3 1.9.6 2.5 1.2.8.7 2-.4 1.2-1.2-.9-.8-2-1.2-3.2-1.6-1-.4-1.5 1.2-.5 1.6M151 192c.3.5.8.5 1.2.3.5-.2 1.1-.2 1.7-.2 1 0 1-1.7 0-1.7a6 6 0 0 0-2.6.5c-.4.2-.5.8-.3 1.1m2.2 39.2c.5 0 .8-.4.8-.8 0-.5-.3-.8-.7-.9 0-.4-.4-.7-.8-.7-.5 0-.9.4-.8.8 0 .9.7 1.6 1.5 1.6M2 237.6c.3-1 1-1.9 1.4-2.8l.3-.7c.1.2.4.4.7.4.7 0 1.5 0 2.1.3.4.2 1 0 1.2-.3.2-.4 0-1-.3-1.2-1-.4-2-.4-3-.4-.2 0-.4 0-.5.2A111.4 111.4 0 0 1 6 200.6c.4-2.7 1-5.4.9-8.2-.1-2.7-1.3-5.2-.5-8 .4-1 1-2 1.3-3.2.4-1.1.4-2.3.2-3.5-.4-2.4-1-4.9 0-7.3l1.5-3c.4-1.5.3-3 .4-4.4l.4-8.6c.1-1.3.4-2.5.9-3.7.5-1 1.2-2.1 1.6-3.3.3-1.2.3-2.4.5-3.6a35.8 35.8 0 0 1 8.5-16.4c3.5-4 7.7-7 12.1-9.7l7-4.4c.1.3.3.6.6.7.9.3 1.8.5 2.5 1.2.8.7 2-.4 1.2-1.2a7.6 7.6 0 0 0-2.9-1.5c1-.7 2.2-1.4 3.4-1.8 1-.3 2.6 0 3.4-.8.7-.6 1-1.7 1.2-2.5l1-3.1c.3-.7.7-1.4 1.2-2 .2-.8.6-1.6 1.3-2 2-1.3 4.3 0 5.1 1.7l2.1.2a63.2 63.2 0 0 0 12.3-.4c4.8-.6 9.4-2 14.1-3l.1-.1c1-1.7 3.6-1.4 5.2-.8.7.3 1.4.6 1.8 1.3l1 1c.5.7.8 2.2 1.8 2.3h2a9 9 0 0 1 2.4.8c6 2.6 12 5.4 18.4 6.4 1.5.2 3 .5 4.3 1.3 1 .7 2 1.6 2.8 2.5.8 1 1.5 1.3 2.8 1.4 1.4.2 2.7.6 3.8 1.7.9.9 1.5 2 2.2 3a7 7 0 0 0 2.8 2.3c2.6 1.5 5 3.2 7 5.3 4.5 4.5 7.1 10.1 9.8 15.7a94.4 94.4 0 0 1 11 37.7c.5 6.9.5 13.8 1 20.6l.6 10.3c.1 3.4.4 6.8.3 10.1a57.2 57.2 0 0 1-5.5 23.8c-.6 1.3-2.6 1.2-3.3 0l-.3-.8h-5l-8.8.6-17.3 1h-1.7c4-12.7 3.6-26.5 4.2-39.8 0-1-1.6-1-1.6 0-.7 13.4-.1 27.2-4.4 40-1.7 0-3.3.2-5 .4-1.3.2-2.6.4-4 .3-1.5 0-3-.4-4.5-.7-2.7-.6-5.3-.3-8 0a319.2 319.2 0 0 1-44 .9l-8.4-.8-8.7-1.4c-2.8-.3-5.5.6-8.3.8-2.9.2-5.8-.4-8.7-.7l-2.7-.4c1.1-8.2 1.8-16.5 2.5-24.7 0-1.1-1.6-1.1-1.7 0-.6 8.2-1.3 16.4-2.5 24.5-5-.5-9.9-1.1-14.7-2-1.4-.3-2.8-.7-3.7-2-.6-.8-.7-2-.4-3" clip-rule="evenodd"/>
  <path fill="#EDB98A" fill-rule="evenodd" d="M39.5 63.4c.4-4-.2-12.1-.2-12.6-.2-3.2 1.2-15.6 4-14.5a29.5 29.5 0 0 1 16.7-5c12.1-.7 25 1.1 34.3 9.3 4.6 4.2 9.1 10.4 8.8 16.8 4.2 6 10 14.4 4.9 21.5-1.8 2.3-4.6 3.1-6.9 4.9-4.5 3.6-7.3 8.8-11.8 12.4-12 10.8-32.4 13-44.2.8-9.1-9-7.6-22.3-6-33.6 1-7.6-.5 7.6.4 0Z" clip-rule="evenodd"/>
  <path fill="#000" fill-rule="evenodd" d="M76.2 14.7a42 42 0 0 0-9.9-.9h-.2c-2.5.1-5.6.3-7.8 1.8a.4.4 0 0 0-.5-.1c-2.6 1.2-5.4 2-8.1 3-2.7.9-5.5 1.4-8.4 1.7-1 0-2 1.2-1.3 2.2l.5.8h-.8c-.8-.2-1.7.7-1.6 1.6l.1 1.5c-.3 0-.6 0-1 .2-1.5.7-1.4 2.6-1.3 4 .2 2 1 4.1 2.3 5.6a9.2 9.2 0 0 0-2.2 4 10 10 0 0 0-.4 3.4v.3c.1 1.3.3 2.7 1.2 3.6.5.4 1 .6 1.6.6l-.7 8.7-.1 1.4a257 257 0 0 0-.7 20.2 28 28 0 0 0 5.2 17.5 25 25 0 0 0 14.2 9.4 25.3 25.3 0 0 0 13.8-.8 8.5 8.5 0 0 0 3.8-2.7c.5-.6.2-2-.8-1.8-1.5.2-2.9.4-4.3.8l-.2.1a21.5 21.5 0 0 1-13.7 0c-4.9-1.5-9-5-11.7-9.2a30.1 30.1 0 0 1-3.5-16.8c0-6.4.3-12.9.6-19.3v-1a1202.6 1202.6 0 0 0 .8-13 8.2 8.2 0 0 0 3-3c1.4.6 2.9 1 4.2 1.4 3.2.8 6.4 1 9.6.5a28.4 28.4 0 0 0 3.4 1.2 44 44 0 0 0 6.6 2.3l.6.1c1.2.3 2.5.6 3.7.7l.7.2c1.2.3 2.4.4 3.6.3 1.1-.1 2-1.3 1.3-2.4l-1.4-2.4a44.8 44.8 0 0 0 10.4 3c.9.3 1.9.4 2.8.6.7.2 1.7.3 2.2.7.7.5.8 1.6 1 2.3a60.3 60.3 0 0 1 2.8 14.1c.2 2 .1 3.9.3 5.8.1 1 1.2 1.5 2 .8l.3-.2.1-.2a14.1 14.1 0 0 0 2.2-2.4l.2-.2c1.7-1.2 4.5-2.8 6.1-.8.5.7.8 1.5 1 2.4l.4 1.4.6 2.9c.3 2.2.2 4.7-1.3 6.4-.6.7-1.4 1.2-2.4 1.3h-3c-.8-.1-1.2.9-.9 1.5l.6.8-.5.5a2.6 2.6 0 0 0-1.7 2.1v.3l-.5.7c0 .2-.2.4-.3.5a22.6 22.6 0 0 1-4 4.7l-4.5 4.1-.1.2c-1.4 1.4-2.7 3-2.2 5 .1.6.8 1 1.3.6 1.5-1.1 2.3-3 3.6-4.3l4-4c1.4-1.4 2.3-2.9 3-4.6.4.4.8.6 1.4.7 1 .2 2-.5 2.5-1.4l.9.4c1.5.5 2.5-1.3 2-2.6-.4-.7-.8-1.3-1.3-1.8 1.6-.2 3.1-1 4.1-2 2.6-2.5 3-6.2 2.3-9.5A25.1 25.1 0 0 0 110 64l.2-.1c.4-.7 1-1.2 1.3-1.9l1-2a33.1 33.1 0 0 0 .7-13.2 37 37 0 0 0-5.5-14l.4-.3h.1l.1-.2c.8-.7.7-2 0-2.7l-.2-.3a6 6 0 0 0-1.2-1c.2-.4.3-.9.1-1.5-.5-2-3.4-2-5.3-1-2-1.9-4.3-3.4-6.7-4.7-5.8-3-12.4-5.2-18.8-6.5Zm30 53.2c-1-.4-2.5.3-3.5.8a14 14 0 0 0-3.3 2.3c-.5.4-.6 1.2-.4 1.8v.2c.1.6.9 1.2 1.5 1.1 1.4 0 2-1.2 2.8-2.2l.4.4v.1c.4.3.7.5 1.1.4.3 0 .6 0 .9-.2.7-.3 1-1.2.8-1.9-.1-.4-.4-.8-.7-1l.1-.1.7-.7c.2-.4.1-.9-.4-1Z" clip-rule="evenodd"/>
  <path fill="#000" fill-rule="evenodd" d="M55 88.7c1.5.5 3.1.5 4.7 0a8.5 8.5 0 0 0 3.9-2.5c1-1 1.5-2.3 1.5-3.7L65 82a.7.7 0 0 0-.8-.2 37.8 37.8 0 0 1-.8.9c-1.3 1.6-2.5 2.8-4.5 3.2-1 .2-2 .1-3-.2-1-.4-2-1-2.7-2-.3-.3-.7-.5-1.1-.5-.4 0-.9.2-1.2.5a2 2 0 0 0-.5 1.2c0 .4 0 .8.4 1.2 1.1 1.2 2.6 2 4.2 2.5ZM55 69c-1.6 1-4 3.1-2.3 5.5 2 2 4.9-.3 6.3-1.4 1.3-.8 2.8 1.3 1.6 2.3-10.2 7.5-14.3-6.2-6.4-7.6.9-.1 1.2.9.8 1.2Zm14.7-4.2c.5-.4 1-.5 1.7-.2.5.3 1.4 1 2 2 .5.8.8 1.6.7 2.4l.2.5.4.2h.4l.4-.4a5 5 0 0 0-.3-3.7 7 7 0 0 0-2.6-3.3c-1.4-.7-3-.8-4.3 0a8 8 0 0 0-2.6 2.7l-.5.7c-.3.4-.3.8-.2 1.2.2.4.5.7 1 1h1.2c.3-.2.6-.5.8-1 .4-.8 1-1.7 1.7-2.1ZM44 66.5c.3.1.6.2 1 0l.6-.3c.1-.1.3-.3.3-.6.1-.5.4-1 .8-1.4.4-.3.9-.4 1.4-.3.5 0 1 .4 1.4.8l.4.5c.1.3.3.6.6.8l.3.1h.2c.6-.5.7-1 .6-1.4 0-.4-.1-.9-.4-1.3-.7-1-2-1.7-2.8-2a4 4 0 0 0-3.2.8 4 4 0 0 0-1.8 2.8v.8c.1.3.3.5.6.7Zm23-12.2c.7.7 1.6.8 2.4.9a11 11 0 0 1 7.7 4.2 15.5 15.5 0 0 1 .6.8 5.9 5.9 0 0 0 .3.6l.2.2.3.1.2-.1c.4-.3.5-.8.5-1.3 0-.8-.3-1.7-.6-2.2a12 12 0 0 0-2.5-3.5 12.5 12.5 0 0 0-7-3.1 3 3 0 0 0-2 .8c-.4.4-.6.8-.6 1.3s.2 1 .5 1.3Zm-24.4 6.2.2.1a.4.4 0 0 0 .5-.3c.5-2 1.4-3.5 3.3-4.4.9-.5 2-.8 3-1l.9-.2c1-.2 2-.3 2.6-1.1.4-.5.6-1.1.5-1.7-.1-.5-.4-1-1-1.3-1.4-.7-3.1 0-4.5.6l-.3.1c-1.4.6-2.7 1.4-3.7 2.5a8 8 0 0 0-1.9 3.5c-.2 1-.2 2.2.4 3.2Z" clip-rule="evenodd"/>
  <path fill="#000" fill-rule="evenodd" d="M50.6 92c2-1.6 4.1-5 6.9-2.4.7.8 1 2.6 2 2.9 1.4.5 2.8-1 3.3-2.2 2-6.3-6.1-8-10.7-7-2.2 1-3.9 4.7-4 6.6 0 1.3 1 3.2 2.5 2.2M36 82.4l.1-.2c.9-.4 1.5 0 2 .6l-.1.4c.3.7.6 1.6 1 2.1h.3c7.2.8 3.7-6.8 11-8.7 5.7-1 16 .1 18.7 6 2 9.5 12.8 3 16.4-2a65 65 0 0 0 8.5-15.2c.5-1.1 2-.3 1.9.7 2.2 4.4 2 9.6 2.6 14.4 1 9.5 1.8 22.8-7 28.7-11.5 13-40.3 17.6-53.6 5.6-4.6-9.9-4-22-1.8-32.4" clip-rule="evenodd"/>
  <path fill="#000" fill-rule="evenodd" d="M43.6 53.4c-4.9 0-7.7 1-8.7 1.1l-1.2.3c-1.5.5-1.7 2-.9 3 .1 2-.2 4.4.3 6.4.6 8.5 4.5 10 6.8 10.4 1.1.3 2.5.4 3.7.1A11 11 0 0 0 54.3 66c.3-1.3.4-2.7.2-4.1v-.2a6 6 0 0 1 2.7-.5h1.3l1.2.2c.5.1 1 .4 1.3.7v.5c.1 1.4.3 2.7.6 4 .4 1.9 1 3.7 2.3 5 .5.7 1 1.3 1.7 1.8a13 13 0 0 0 9 2.4 13 13 0 0 0 10.7-7.7l.1-.1c.6-1.6 1-3.6 3-4h.4c.9-.2 1.7-.4 2.2-1.3l.4-1.2h.9c2.3.6 16.5 1 17.7 1 0 0 2.1.9 3 .2.7-.5 1-1.2.6-2-.6-1-3-1.7-4.1-2 0 0-17.5.2-18.8 0-.8-.8-2.2-.7-3.3-.8a39.5 39.5 0 0 0-4-1.7A25 25 0 0 0 70.9 55l-2.6.5c-1.6.2-3.1.5-4.7 1h-.3a12 12 0 0 1-5.1.5c-1.4-.2-2.7-.8-4-1.3l-.2-.1a28.6 28.6 0 0 0-10.4-2.3Zm24.9 4.7c1-.2 1.4 1.4.4 1.6-.7.2-1.4.6-1.8 1.2-.6 1-2 .2-1.5-.8a5 5 0 0 1 2.9-2Zm-30.6-1c.4-.2 1 0 1.2.3.2.4 0 .9-.3 1.2-.4.2-.7.6-.7 1 0 1.1-1.7 1.1-1.7 0 0-1 .7-1.9 1.5-2.5Z" clip-rule="evenodd"/>
  <path fill="#AE5D29" fill-rule="evenodd" d="M260 147.3c-1.7-6.4-3.2-9-6-11.2-2.8-2-6.7-3.8-12.5-5-6-1.1-6.2-4.3-7.7-9.3-.4-1.5-2.6-1.9-3.6-.8l-.4-.4c.2-.7-.9-2.8-.9-3.5.4-7.2-2-10.8-7.8-12.1a60 60 0 0 0-11.2-.1c-5.4 1.5-10.8 6.2-10 12a10.7 10.7 0 0 1-6 4.3c-4.1.5-2 58.7 5 93.5 3.1 15 76.3-10.5 73-18 .4-1.3-.4-2.8 0-4.3.2-1 1-1.4 1.3-2.4.5-1.4 0-3.4-.6-4.8-.2-.7.4-1.5.6-2.3.9-3.5-1.1-3.2-2.6-5.5l.4-1.7c.3-1.2-.3-2.7-.8-3.7-.3-.7-1-1-1.7-1 .7-2.4 1.6-4.3 2.5-6.6 1.7-4 3.3-8.3 5.7-12 1-1.4.2-2.8-1.4-3-5.2-.2-10.3-1-15.3-2.1Z" clip-rule="evenodd"/>
  <path fill="#EC7495" fill-rule="evenodd" d="m251.9 147.8-11.8 20s2.8.3 3.9.8a70 70 0 0 1 6.3 7.2l.9 3.6-2 3 .8 1.8s.5-1.2 1.9-2.2c1.3-1 4.3-2.6 4.3-2.6s-1-.5-1-1.1c0-.7-.8-3.3 1-4.3 2-1 11.6-3.4 11.6-3.4l9.8-20.7-25.7-2.1Z" clip-rule="evenodd"/>
  <path fill="#9DDADB" fill-rule="evenodd" d="m199.1 121.4 37.6 6.5 17.2 8.2 2.9 2.1-16.7 29.6-25.8 4.7-6.6 17 1.3 19.3 42-5 18-2.2 4.3 17.2-.7 7-1.2 3.7-44.8 12s-22.8-2.1-26.9-2.1c-4 0-33.7 3-33.7 3l-6.9-.8s-15.2-16-17.6-21.7c-2.3-5.7-7.4-40.4-7.4-40.4l.6-5.3 13-33.8s1.8-1.6 4-4.3c2.3-2.7 47.4-14.7 47.4-14.7Z" clip-rule="evenodd"/>
  <path fill="#000" fill-rule="evenodd" d="M267 170.2c-3.3.1-6.7 1-9.8 2.4-1.2.6-2.4 1.5-2.7 2.9-.2.7-.1 1.5 0 2.2 0 .6 0 1.3.5 1.7l.3.1a23 23 0 0 0-3.2 1.8c-.9.5-1.8 1.4-2.2 2.4v-.3a9 9 0 0 0-3.5-4.8c-.2-.7-2.2-3.7-4.1-3.6-2 .1-3.7.3-5.6 1.3h-2a46.2 46.2 0 0 1 5.5 1.2c1.5.4 3 .8 4.5 1.5a8 8 0 0 1 4 7.8c0 .5-.2 2-.9 1.9-.6-.2-.8-1.4-1-1.8-.5-1.2-1.5-2-2.7-2.5-1.4-.7-2.9-1-4.3-1.6l-2.5-.8c-.8-.3-1.6-.7-2.5-.5-.5.1-.6.8-.3 1.1.5.6 1.2.8 1.8 1l2.6.9 4.1 1.4v.1c-.1 0-.3.1-.2.2.2 1.3.4 2.7.1 3.9-.2 1-1 2-2.2 1.7.2-.1.3-.4.2-.7-.5-.9-6.2-4.6-6.7-3.2h.1c.4 0 1.2.7 1.5 1l1.5 1c.6.3 1 .7 1.6 1.2.4.3.7.6 1.2.8a1 1 0 0 0-.5.6c-.3.7-.7 1.3-1.4 1.6-.7.4-1.5.1-2.3.2-1 .1-2 .6-2.7 1.4-1.7 1.5-2.5 4.1-4.7 4.8-1.4.5-2.9.2-4.2 0-1.6-.2-3-.4-4.6-.2-1.5.3-2.9.8-4.2 1.4-1.3.6-2.7 1.2-3.8 2l-.6-2a32 32 0 0 1-.7-5.3c0-1.6 0-3.3.2-5l.2-2.5.1-.6c2-1.2 4.1-2.1 6.2-3a8.3 8.3 0 0 1 .2-.2c.3-.1.4-.3.5-.5 3-2 5.6-4.8 7.5-8 .8-1.4 1.6-2.8 2.6-4 1.1-1.2 2.5-2 4-2.3a38 38 0 0 1 5.9-1l3.4-.1a9 9 0 0 1 2.3.2c1.1.3 1.7 1.1 2.4 2a57.3 57.3 0 0 1 3.5 4.8l.8 1.6.2.6c0 .2 0 .4.2.4-1 0-1.6 2.4-.7 2.3 1.3 0 2-1.6 1.7-3-.4-2.5-2.9-5.4-3.3-6-1.1-1.4-2.2-3.3-4-4 .5-.4.9-1 1.3-1.5.3-.6.8-1.3 1-2 0-.5-.5-.7-.8-.3-.4.5-.6 1.3-.9 1.9l-.9 1.9-2.1-.4a94.4 94.4 0 0 0 5.2-8.5c1-1.6 1.7-3.3 2.5-5l1.5-2.7.6-1h.1l.2-.2c.3-.1.4-.5.6-.8.3-.4.7-.5 1.2-.5l3.3.1 4.8.2h1.5l7 .6 6.1.7a195.5 195.5 0 0 1-9.4 19.6Zm-15.4 17-1.3.8.1-1.4c.3.3.8.5 1.2.6Zm19.2-11.4c-.7 1.4-.4 2.8.6 3.8.5.5 1.7 1.1 1.6 2 0 .7-.8 1.3-1 1.8-.4.6-.5 1.2-.3 1.7.4.8 1.2 1 1.5 1.8.4 1-.2 2-.6 2.9-.4.7-1 1.5-1.3 2.3a76.7 76.7 0 0 1-8 3.4 104.2 104.2 0 0 1-9.3 1.4c-.7.1-1.5.2-2.1-.3-1.2-1.1-.6-3 .2-4.1v-.1l2.1-.5 4.1-.7 8.5-1c.7 0 .7-1 0-1-4 .4-8.1.7-12.2 1.5l-3 .7-1.4.3h-.1c-1 0-1.1-.9-.6-1.6l.2-.2c1-1.2 2.1-1.9 3.3-2.7 1.4-.2 2.7-.6 4-.9l9.8-2.2c.6-.1.3-1.1-.3-1l-7.4 1.7-3.6.8c-.7.2-1.6.5-2.5.6h-1.2c-1.2-.3-1.2-1.7-.7-2.6.6-1 1.6-1.6 2.6-2.2 1.7-1 3.4-1.7 5.2-2.5l.9-.2c1.8-.4 3.8-.5 5.5-1.3.5-.2.2-1-.3-1-1.3 0-2.6.5-4 .8l-4 .9c-.2 0-1 .3-1.1.2l-.2-.5V176c.2-1.3 1.3-2 2.4-2.4a26 26 0 0 1 9.9-2.3c.7 0 1.3-.1 1.7.6.6 1.1 1 2.6 1.1 4Zm-3.5 41.9c-.5-2-.4-4-.7-5.9l-.8-3c-.2-.7-.6-1.5-.6-2.3v-.1c.8.4 1.4 1.4 1.9 2.1l1.2 2.8c.7 2 1.2 4.4.4 6.4-.3.5-1.2.7-1.4 0Zm-21.2 14.2c-.8-.5-1.4-1.3-2.1-2-.7-.7.4-1.8 1-1.1.6.6 1.1 1.3 1.8 1.8.4.3.5.7.3 1-.2.4-.7.6-1 .3Zm-4.6-21.8 4.5-1.8c1-.2 1.4 1.2.4 1.5-1.4.4-2.7 1-4.1 1.6-.9.4-1.6-.9-.8-1.3Zm-15.6-.4c-.4-1 1-1.3 1.4-.4.4 1 1 2 1.3 3 .4 1-1 1.3-1.4.4l-1.3-3Zm-15.5 17.9c-.2.3-.6.5-1 .2-.3-.2-.5-.7-.3-1l2.3-2.7c.7-.7 1.8.3 1 1l-2 2.5Zm-2.2-100.3 2 1.6c.6.7-.5 1.8-1.1 1.1l-1.6-1.4c-.4-.2-.5-.6-.3-1 .2-.3.7-.5 1-.3Zm22.5 24.1c-.4.8-.7 1.6-.8 2.4 0 1-1.5 1-1.4 0a6 6 0 0 1 1-3.1c.3-.9 1.6-.1 1.2.7Zm8.3-19.3c.8-.6 1.5.7.7 1.3l-2 1.2c-.7.6-1.5-.7-.7-1.2.7-.5 1.3-1 2-1.3Zm-35.8 33.8c-.1 1-1.6.6-1.5-.4.3-1.4.5-2.9 1-4.3.2-1 1.6-.5 1.4.4l-1 4.3Zm-5.3 17.2c-1 0-1-1.6 0-1.5 1 0 1.8.2 2.6.4 1 .3.5 1.7-.4 1.5-.7-.2-1.4-.4-2.2-.4Zm-1.9 34.5-1 .5a729.1 729.1 0 0 0-6.2 2.8l-8.4 3.8a1096 1096 0 0 0-8.5 4l-4 1.8c-1.2.6-2.6 1.5-3.9 1.5.4-.6 1.2-1 1.8-1.3l2-1a242.3 242.3 0 0 1 12.3-6.3c2.8-1.4 5.5-2.8 8.4-4.1a1454.1 1454.1 0 0 1 6.1-3l1-.4 1.1-.3c.7-.1 1 .8.5 1.2-.4.3-.7.6-1.2.8ZM186 233c-.1-.4.2-.8.5-1 .5 0 .8.2 1 .6.4 1 1 1.9 1.7 2.7.7.7-.4 1.7-1 1-1-1-1.7-2-2.2-3.3Zm-7.3-24c-.7-.7.3-1.8 1-1.1l2 2c.6.6-.4 1.7-1.1 1l-2-2Zm-20-3.2c-1.4.4-3 .8-4 2v-.1c1.2-2.5 4.7-3.4 7.1-4.3 1.7-.6 3.5-1.2 5.2-1.6-.1-2 .3-4.2.5-6.2a132.2 132.2 0 0 0 .4-13c0-2.3-.3-4.4-.4-6.6 0-.2.2-.2.3 0a52.5 52.5 0 0 1 1.2 19.8l-.2 3.2-.3 2.4 3.2-.7 10.2-2.4 5-1.3c1.5-.4 3.2-.9 4.8-1 .5-.1.6.6.2 1a34.5 34.5 0 0 1-9.1 3.2l-9.7 2.2a153.2 153.2 0 0 0-14.3 3.4Zm-7.6-40c-.8.4-1.6-.9-.8-1.4l3.5-1.6c.9-.3 1.2 1.1.4 1.5-1.1.4-2.1.8-3.1 1.4Zm-3 55.6c-.9.4-1.6-.9-.8-1.3 1.2-.7 2.5-1.2 3.7-1.8.9-.4 1.6.9.7 1.3-1.2.6-2.4 1-3.6 1.8Zm-1.4-31.6c.8.7 2 1 3 1.5.8.3.4 1.8-.5 1.4-1.2-.5-2.5-1-3.5-1.9-.7-.6.3-1.7 1-1Zm9-43c.9.4.5 1.9-.4 1.5l-3-1c-1-.4-.6-1.9.3-1.5l3 1Zm15.7-17c1-.1 1.4 1.3.4 1.5-1.1.2-2.3.4-3.4.8-1 .4-1.3-1-.4-1.4 1.1-.4 2.3-.7 3.4-.9Zm5.2 41.5c-.8-.4 0-1.7.8-1.3 1 .5 1.9.8 2.8 1 1 .2.6 1.7-.4 1.5l-3.2-1.2Zm5-23.4c.9-.2 1.3 1.2.4 1.5l-5 1c-1 .3-1.3-1.1-.4-1.4l5-1Zm20.8-7.3c1 .2.6 1.6-.3 1.5-1-.2-2-.2-3-.2s-1-1.5 0-1.5 2.2 0 3.3.2Zm68.1 7.8-7.3-.5h-.3v-.1c-.9-1.2-1.5-2.4-2-3.7-.5-1.3-1-2.6-1.7-3.7a12 12 0 0 0-3.3-3.2 15 15 0 0 0-2.1 1.8c-.7.6-1.8-.4-1-1.1.5-.6 1.1-1.1 1.8-1.6l-2.3-1.3c-2.8-1.6-5.7-3.1-8.7-4.5l-4.1-1.7-2.3-1.1c0-.5 0-1.1-.5-1.5l-.9-.5c.2 0 .2 0 0 0 0-.4-.6-1-.7-1.4-.5-1-.6-2.2-1.3-3.1a3.7 3.7 0 0 0-4.1-1.4c-.2-1.7-.2-3.3-.8-4.8h-.1c-.7 1-.7 2.3-.8 3.5 0 1.2 0 2.4.2 3.6a5.4 5.4 0 0 1-1.9 1c-1 .3-2.1.4-3.2.5a48.6 48.6 0 0 1-18.1-3.3c-1.6-.9-3.1-2-4.7-3.1.6-1.8.7-3.7.2-5.3-.1-.1-.4-.2-.4 0-.4 1.5-.5 3-1 4.4l-.4-.3c-.4-.2-.8 0-1 .3-3.3 5.1-8.4 5.4-13.8 6.3-5.8 1-11.7 2-17.4 4a38.3 38.3 0 0 0-17.3 11.6c.8 0 1.6.2 2.4.5.9.3.5 1.7-.4 1.4-1-.3-2-.5-3-.5a89.2 89.2 0 0 0-13.9 38l1.8-1c.9-.4 1.6.9.8 1.3-1 .5-2 1-2.8 1.6a99.1 99.1 0 0 0 3.8 39.3c1.4 4.3 3.3 8.6 6 12.3a21.7 21.7 0 0 0 6.9 6c1.1.6 2.6.8 3.6 1.6l.8 1v2.4l.5.5v.2h.1v-.1h.3l8.5-.1-.7-2c-.3-1 1.1-1.4 1.4-.5l.8 2.4 9.2-.4 19.4-.4c10-.2 20.2-.6 30.3-.2l1-2.2c.5-.9 1.8 0 1.4.8l-.8 1.5c2 0 4 .2 6.1.4 3.5.3 7 1 10.4 1.3 3.5.3 7 .3 10.4-.3.7-.1 1-.5 1.2-1l.5-.5.7-.4c.5-.1 1-.3 1.6-.3l1.7-.2a13.5 13.5 0 0 0 3.9-1l1.9-1.3c1.2-.9 2.3-2 3.2-3.2.6-.7 1-1.5 1.5-2.2l2.2-4 .7-1.3c-1.3-.4-2.7-.7-4.2-.8-1 0-1-1.5 0-1.5 1.7 0 3.3.5 4.8 1l.2-.7.5-1.3.2-.6.5-2.1a28.1 28.1 0 0 0 1.2-5.7 43.3 43.3 0 0 0 .3-9.2c0-.8-.2-1.6-.3-2.3l-.6-3.5-.6-2.3a44.3 44.3 0 0 0-2-5l-.3.1v-.2l-.3-.3c.7-.8 1.1-1.9 1.6-2.8.4-.8.8-1.6.9-2.4 0-.8 0-1.5-.5-2.1-.5-.7-1.6-1-1-2 .6-1.2 1.6-2.2.6-3.5-.4-.7-1.2-1-1.8-1.6-.6-.7-.9-1.6-.9-2.5h.1a8 8 0 0 0-.4-5c-.3-1-1-1.1-1.7-1.2a255.2 255.2 0 0 0 9.3-20c0-.3-.2-.7-.5-.8-2.3-.5-4.8-.6-7.2-.9Z" clip-rule="evenodd"/>
  <path fill="#AE5D29" fill-rule="evenodd" d="M243.4 70.2c-.4-5.8.3-11.8-2-17.3-3.8-9-14.6-12-23-15.5-3.4-1-14.7-1.2-18.6-2.5-9-3-11-6.5-18.2-.9-1.2 1-1.9 2-2.4 3.5a2 2 0 0 0 .3 1.7c-3 3.1-4.3 7.8-2.7 12 5.1 11 4.9 16.8 3.2 28.5-2.2 11 2.8 15 11 20.9-.4.6-.4 1.5 0 2a35.5 35.5 0 0 0 42.6 13c6.2-2.8 9-9.4 10.5-15.4a42.9 42.9 0 0 0 1-20.5c-.7-3.2-1.4-6.3-1.7-9.5Z" clip-rule="evenodd"/>
  <path fill="#9FD8E5" fill-rule="evenodd" d="m175.6 53.8 5.7 3.8 20.1-21.3-6.7-5.3s-12.2 9-14.5 11.4c-2.4 2.4-4.6 11.4-4.6 11.4Z" clip-rule="evenodd"/>
  <path fill="#000" fill-rule="evenodd" d="M188.8 6.4c1.2-.2 2 .5 2.5 1.6l.4 1c2.9-1.4 7-1 8.8 1.8 1.3 2 .5 4.5 0 6.7l-.3 1.4c.6.4 1.1 1.1 1 1.8v2a10.3 10.3 0 0 0 1.8-2.5c1.6-2.5 5.2-.4 3.9 2.2l-.9 1.4-.8 2c.6.4 1.1 1 1.2 1.9 0 2.1-1 3.9-2.8 5a2 2 0 0 1-1.6.3l-.2.3c.7.6 1.3 1.2 1.9 2a34 34 0 0 1 5-.4c2-1 4.4-1 6.6-.6 1.4.2 2.7.7 4 1 1.5.4 3 .4 4.5.6a7 7 0 0 1 4.5 2.6c1.1 0 2.3.5 3.3 1l6.8 4.5c.9.6 1.2 1.4 1 2.5v.4l.1.3c.7 1 1.5 2 2 3A33.4 33.4 0 0 1 246 61c.2.7 0 1.2-.1 2l-.3 2.5c-.1.5-.6.8-1 .8a105.7 105.7 0 0 1 .8 10.4c.5.8 1.7 1.4 2.5 1.6 1 .3 2.3 0 3.3-.4.7-.2 1.2.6 1 1.2-1.1 1.8-3.3 1.8-5 1-.7-.4-1.3-.8-1.7-1.5V81c.4 6.2 1.2 12.7 0 19-2 10.7-11 19-21.8 19.5a30 30 0 0 1-12.8-2.2c-2.4-1-1.4-3 .2-2.4 2.8 1 8 2.4 12.6 1.8 11-1.4 20.2-7 19.3-30.5-.1-3.4-.6-6.7-.7-10 0-3.3 0-6.6-.2-9.9v-1l-.2-4-.4-1.5c-.4-1.4-.9-2.7-1.5-4a1 1 0 0 1-.5.3 5.9 5.9 0 0 1-5.2-1.4l-.5-.6a2 2 0 0 1-1.5-.5c-.4-.5-.5-1-.3-1.5a7.2 7.2 0 0 1-2.6 3.1 10.3 10.3 0 0 1-5.9 1.6 40.6 40.6 0 0 1-8.6-1 6.3 6.3 0 0 1-7.1 1.3 11 11 0 0 1-3.6-2.7l-.1 1.8v.2c-.1 1-.3 2.2-1.1 3-1.4 1.3-3.3.8-4.8 0l1.3 4.2v.3c.3 1 .7 2 .8 3 .1 2-1.2 4-3.4 3.3-1.1-.3-2-1.3-3-2l-.5-.5c1.4 4.7 2.4 9.6 2.5 14.5 0 .3-.2.5-.4.5-.6 0-1.3 0-1.9-.3a7 7 0 0 1-2.9-1.1c.2.6.3 1.3.3 2 0 .1-.3.2-.4 0-.4-2.4-3.2-4.2-5.6-3.7a6.4 6.4 0 0 0-5 5.2 10 10 0 0 0 2.3 8c.8.9 1.9 1.7 3.1 1.9a4 4 0 0 0 1.8-.1l.7-.3c.3-.1.7-.1 1-.3.7-.3 1.4.4 1 1a3 3 0 0 1-1 1.5l.9 1.4a33.2 33.2 0 0 0 5 5.3l.4.4c1 .7 1.8 1.4 2.4 2.5.5.8-.1 2-1.1 2-3-.1-5.3-2.8-6.8-5.1l-.7-1.1-.2.3.2.5c.5 1.4-1.7 2.3-2.4 1-.4-1-1-1.8-1.6-2.7a1 1 0 0 1-.9-.5l-1.5-2.2-.8-.7-.2.2a10 10 0 0 1-1.3 2.1l-.1.2c-1 1.2-2.3 2.5-4 2.8-.4.1-.9-.5-.5-.9 1.2-1 2.5-1.7 3.5-2.8l1.4-1.8.1-.2.2-.3-1.4-1c-1.3 1.1-3 1.6-4.4 2.6h-.1c-1.3 1-2.7-1-1.6-2 1.1-1.2 2-2.6 3-3.9-.4-.8-.6-1.9-.7-3l-.1-.8c-.7 0-1.5-.3-2-.7l-.3-.2a7 7 0 0 1-2.3.4c-1.8 0-2.5-2.1-1.4-3.4 1.1-1.3 3.1-1.6 4.7-1h.1v-1.1a4.3 4.3 0 0 1-.5-3.3l.1-.5-.2-1-.1-.1c-.8-1.1-.6-2.5.1-3.3V74a3.1 3.1 0 0 1-1.2-2.7c0-.6.3-1.2.7-1.7V69a9.8 9.8 0 0 1-.1-5.6c-.1-.3-.2-.6-.1-1 0-1.4 1.2-2.7 2.7-2.7l.4.1.4-1.2-.2-.1c-1 .5-2 .8-3 1.1-.7.2-1.5-.7-1-1.4l.7-.9-1.1.1c-.7.1-1.4-.4-1.9-1l-1.6 1.6c-1.4 1.4-3.5.4-3.7-1.4l-1.2-.6c-2.1 1-4.5 1.5-6.9 1.6-1.7 0-2.7-2-2-3.4.6-1 1.3-1.8 2-2.5l-3.6.8c-.7 0-1.7-.5-2-1.1-1-2.5-1-5 .3-7.3l.1-.3.4-1c-1.5-1.5-1.6-3.8-.8-5.7a2 2 0 0 1-.2-1.8 15 15 0 0 1 2.6-4.4l-.2-.7c-.7-2 0-4.3 1.5-5.6 1-.9 2-1.4 3.2-1.7a9 9 0 0 1 1.8-2.3l.1-.2a6.8 6.8 0 0 1 5.4-3.5c0-.8.7-1.6 1.5-1.9.2-.7.5-1.4 1-2 .7-1 2-1.5 3-.8.7.3 1.3.7 1.8 1.2l.9-.2 1.9-.1 2.3-1a6.2 6.2 0 0 1 3.5-1.5 16.8 16.8 0 0 1 5.6-.9V8.6c0-1.1.9-2 2-2.2ZM187.5 97l-.5.1.2.4.4.3V97Zm-9.6-2.8v.2l-.1.1h.7l-.6-.3Zm5.2-10.5c1.7.1 3 .4 4.6 1l.1.2c1.3.6 3.5 1.8 3.4 3.6-.1.5-.5 1-1 1-1.6-.1-2.5-1.7-3.5-2.7-1-1-2.4-2-3.7-2.7-.2 0 0-.4.1-.4Zm-7.5-23c-.4 0-.2.3 0 0ZM197 34.9c-3.7.1-7.5 2.3-10.3 4.6-2.5 2-4.6 4.2-6.4 6.7-.5 1.3-1 2.6-1.3 3.8l-.6 2.6v.3c-.2.2-.3.5-.4.9l1.3.7c.2 0 .3 0 .4.2l1-2v-.1a42.7 42.7 0 0 1 10.7-12.1c2.4-1.9 5.1-3.3 8-4.2-.7-.6-1.5-1-2.4-1.4Z" clip-rule="evenodd"/>
  <path fill="#000" fill-rule="evenodd" d="M231 104.3a7 7 0 0 1-4.3 0 7.6 7.6 0 0 1-3.5-2.2c-.9-1-1.4-2.2-1.4-3.4l.1-.4a.6.6 0 0 1 .8-.2l.2.3.4.5c1.2 1.5 2.3 2.6 4 3a5 5 0 0 0 2.8-.3c1-.3 1.8-1 2.4-1.7.3-.3.7-.5 1-.5.4 0 .8.2 1.1.5.3.3.5.7.5 1 0 .4-.1.8-.4 1.1-1 1.1-2.3 2-3.8 2.3Zm-.1-18c1.4 1 3.6 3 2 5-1.7 2-4.3-.2-5.6-1.2-1.2-.7-2.5 1.2-1.4 2.1 9.2 6.8 12.9-5.6 5.7-6.8-.8-.2-1 .7-.7 1Zm-13.2-3.7c-.5-.3-1-.4-1.6-.1-.5.2-1.3.9-1.8 1.8-.4.7-.7 1.4-.6 2.2l-.2.4-.3.1h-.4a.5.5 0 0 1-.4-.3c-.4-1-.2-2.2.3-3.3a6.7 6.7 0 0 1 2.4-3 4 4 0 0 1 3.8 0c1 .6 1.7 1.5 2.4 2.4l.4.6c.3.4.3.8.2 1.1-.1.4-.5.7-.8.9h-1.2c-.3-.1-.6-.4-.7-.8-.3-.8-.9-1.6-1.5-2Zm23 1.6a1 1 0 0 1-.9.1l-.5-.3a1 1 0 0 1-.3-.5c0-.5-.3-1-.7-1.3-.4-.2-.8-.4-1.2-.3-.6 0-1 .4-1.4.8l-.2.4a3 3 0 0 1-.6.7l-.3.1h-.2c-.5-.5-.6-.9-.6-1.2 0-.4.2-.8.5-1.2a5 5 0 0 1 2.4-1.8c1-.2 2.1 0 3 .7.8.6 1.4 1.5 1.6 2.5v.8a1 1 0 0 1-.6.5Zm-20.7-11c-.7.7-1.4.8-2.1.8a10 10 0 0 0-7 3.9l-.4.5-.2.2a5.6 5.6 0 0 1-.2.5l-.2.2h-.5c-.3-.3-.4-.7-.4-1.2 0-.7.3-1.5.6-2a9.7 9.7 0 0 1 5.8-5.3c.9-.3 1.9-.6 2.8-.6.6 0 1.3.2 1.8.7.3.3.4.8.4 1.2 0 .4-.1.9-.4 1.2Zm22 5.6-.1.2a.4.4 0 0 1-.5-.3c-.4-1.8-1.2-3.2-3-4-.8-.5-1.8-.7-2.7-1h-.8c-1-.2-1.8-.4-2.4-1a2 2 0 0 1-.4-1.6c0-.5.4-.9.9-1.2 1.2-.6 2.8 0 4 .6l.3.1c1.3.5 2.4 1.2 3.4 2.2.7.8 1.4 2 1.7 3.2.2 1 .1 2-.4 2.8Z" clip-rule="evenodd"/>
</svg>