<svg xmlns="http://www.w3.org/2000/svg" fill="none" viewBox="0 0 519 446"><path fill="#EDB98A" fill-rule="evenodd" d="M90.9 204.2c7.1-5.2 10.7-13.7 13.3-15.2 2-1 2-8.4 5.9-11 5.2-3.5 22-6 28.1-6.5 5.9-.5 16 .5 21.6 2.6 9.1 3.6 12.8 10.4 16.8 19.2 0 0-90.6 14.4-85.7 10.9Z" clip-rule="evenodd"/><path fill="#78E185" fill-rule="evenodd" d="M224 210.2H79L28.8 255 6.5 442.4l31.7 9.9 195.7 3.3 61.1-17.3 3.8-130.6-74.9-97.5Z" clip-rule="evenodd"/><path fill="#000" fill-rule="evenodd" d="M27 408.4c1-.5 2-1.1 3.1-1.2 2 0 2-3.1 0-3a10 10 0 0 0-4.7 1.5c-1.8.9-.2 3.6 1.5 2.7Zm3.1-86.7c-1.3 0-2.7.1-3.7 1-.6.6-.6 1.7 0 2.3.6.6 1.6.5 2.2 0-.2.1 0 0 0 0v-.1h.1l.5-.1h.9c.9 0 1.6-.8 1.6-1.6s-.7-1.5-1.6-1.5Zm14.5 34.5c.5 2 3.4 1.1 3-.8a21 21 0 0 1 0-8.5c.4-2-2.6-2.8-3-.8-.6 3.4-.7 6.7 0 10.1Zm4-110.7c2.2-.5 4.5-.6 6.8-.6 2 0 2-3 0-3a33 33 0 0 0-7.7.6c-2 .5-1.1 3.5.8 3Zm7.6 75 4-2c1.8-.8.2-3.5-1.6-2.6l-4 2c-1.7.9-.2 3.5 1.6 2.6Zm.6 60.7c1.6 2.4 4 4 6.9 4.7 1.9.5 2.7-2.5.8-3-2-.5-3.9-1.5-5-3.3-1.2-1.6-3.9 0-2.7 1.6Zm10.6-108.5c.5-.8 1.1-1.2 2-1.2 2 0 2-3.1 0-3-2 0-3.7 1-4.7 2.7-.9 1.7 1.8 3.3 2.7 1.5Zm19.5 21c.6.6 1.7.6 2.2 0l.9-1.2.2-.5.2-.2v-.1c.6-.6.6-1.6 0-2.2-.5-.6-1.6-.6-2.1 0l-.9 1.2-.2.5-.2.2v.1c-.6.6-.6 1.6 0 2.2Zm1.7 45.5c2 .9 4.2.9 6.2 0 .8-.4 1-1.5.6-2.1-.5-.8-1.4-1-2.2-.6a4 4 0 0 1-3 0c-.8-.3-1.7-.2-2.2.6-.4.6-.2 1.7.6 2Zm5.5 32.2c.3.8 1 1.2 2 1.2.8 0 1.4-.7 1.5-1.5 0-.5-.3-1-.7-1.2v-.1c0-.9-.7-1.5-1.5-1.6-.9 0-1.6.8-1.6 1.6 0 .5 0 1 .3 1.6Zm8 51.2c2.4 0 4.8.6 7.2.6 2 0 2-3 0-3-2.4-.1-4.8-.7-7.3-.7-2 0-2 3 0 3Zm10-197.6c1.5 1.4 3.2 2 5 3 1.8.8 3.3-1.8 1.6-2.7-1.5-.7-3.2-1.3-4.4-2.4-1.4-1.4-3.6.8-2.2 2.1Zm3.9 35.5c1-.5 2-1 3.2-1 2-.1 2-3.2 0-3.2-1.7.1-3.2.8-4.8 1.6-1.7.9-.2 3.5 1.6 2.6Zm18.5 142.6c.5-.9 1.2-1.3 2-1.3 2 0 2-3.1 0-3a5 5 0 0 0-4.6 2.7c-1 1.8 1.7 3.3 2.6 1.6Zm6.4-67c.6-.5.6-1.5 0-2.1l-2-2c-.6-.6-1.5-.6-2.2 0-.6.6-.5 1.6 0 2.2l2 2c.7.6 1.6.5 2.2 0Zm7.6 104.3c2.2 0 4.3-.7 6.4-1.4 1.9-.6 1-3.6-.8-3-1.9.7-3.7 1.3-5.6 1.3-2 0-2 3.2 0 3.1Zm10-65.9c2 0 3.6-1 5-2.4 1.5-1.4-.7-3.6-2.1-2.2a5 5 0 0 1-3 1.6c-2 0-2 3.1 0 3Zm-6.2-84.7c0 .8-.4 1.7-1 2.3-1.3 1.4.9 3.6 2.3 2.1a6.7 6.7 0 0 0 1.8-4.4c0-2-3-2-3.1 0Zm23.5-67a7.9 7.9 0 0 1 2.7-3.5c1.8-1 .2-3.6-1.5-2.7-1.8 1-3 2.9-3.9 4.6-.9 1.7 1.8 3.3 2.7 1.5Zm4 32c.7 0 1.4-.2 2-.4l1-.2h.3c.8-.1 1.5-.8 1.5-1.6s-.7-1.6-1.5-1.6c-1.2 0-2.2.7-3.3.7-2 0-2 3.1 0 3Zm10 49.2h3.3c2 0 2-3 0-3h-3.4c-2 0-2 3 0 3Zm3.8 136.2c1 .5 2.2 1 3 1.8 1.5 1.3 3.7-.9 2.2-2.2-1-1-2.4-1.6-3.6-2.3-.8-.3-1.7-.2-2.1.6-.4.7-.2 1.7.5 2.1Zm7.5-39h2c2 0 2-3.1 0-3.1-1.6 0-3.2 0-4.5 1.1-.6.6-.5 1.6 0 2.2.6.6 1.6.5 2.2 0l.3-.1Zm2-52.3a5 5 0 0 1-.5-2.5c0-2-3-2-3 0a9 9 0 0 0 .8 4c.4.8 1.4 1 2.1.6.8-.4 1-1.3.6-2Zm8.9-72.2c1.7.6 3.3 1.4 5 2.5 1.6 1 3.1-1.6 1.5-2.7a24.6 24.6 0 0 0-5.7-2.8c-2-.6-2.7 2.3-.8 3Zm10.3-51.9c1.4 0 2.7.6 4 1.1 1.7 1 3.3-1.7 1.5-2.6-1.7-.8-3.6-1.5-5.5-1.6-2 0-2 3 0 3.1Zm4.7 138.4c.5 0 1-.2 1.3-.6.9 0 1.5-.7 1.6-1.6 0-.8-.8-1.5-1.6-1.5-.5 0-1 0-1.6.2-.8.4-1.2 1.1-1.2 2 0 .9.7 1.5 1.5 1.5Zm7.6-106.5c1.9.6 2.7-2.3.8-3-2.2-.7-4.5-1.2-6.7-2-1.8-.6-2.6 2.4-.8 3l6.7 2Zm6.9 58.2c.6 1.8 3.6 1 3-.9-.6-1.8-.6-3.6-.6-5.5 0-2-3.1-2-3.1 0 0 2.1 0 4.3.7 6.4Zm20.6 69.6c.1.8.7 1.3 1.5 1.4.8 0 1.6-.8 1.5-1.6a3 3 0 0 0-2.8-2.9c-.9 0-1.5.8-1.6 1.6 0 .8.7 1.4 1.4 1.5Zm10.4-88.5c1.6.5 3.4 1 4.7 2.2 1.4 1.4 3.6-.8 2.1-2.1a15.5 15.5 0 0 0-6-3.1c-1.9-.6-2.7 2.3-.8 3Zm7 59.8c.5.8 1.4 1 2.2.6 1-.5 2.1-.5 3.2-.5 2 0 2-3 0-3-1.7 0-3.2 0-4.8.8-.7.4-1 1.4-.5 2.1Zm4 72.6c1 0 1.6-.7 1.6-1.5s-.6-1.4-1.3-1.5c-.2-.8-.8-1.3-1.6-1.4-.8 0-1.5.8-1.5 1.6a3 3 0 0 0 2.9 2.8ZM3 440.2c.5-1.9 1.7-3.4 2.6-5.1l.6-1.4c.2.5.7.8 1.3.8 1.3 0 2.7 0 3.9.5.8.3 1.6.2 2.1-.6.4-.6.2-1.7-.5-2-1.8-.9-3.6-1-5.5-1-.4 0-.8.2-1 .5a191 191 0 0 1 0-29.3c.7-10.5 2.3-20.7 4-31 .9-5 2-10 1.8-15.2-.2-5-2.4-9.7-.9-14.8.6-2 1.7-3.9 2.4-6 .7-2 .6-4.2.3-6.5-.7-4.5-1.8-9 0-13.5.8-2 2.1-3.7 2.8-5.8.7-2.5.6-5.3.8-8 .2-5.2.3-10.6.7-15.9.2-2.3.7-4.6 1.6-6.8 1-2 2.4-4 3-6.2.6-2.2.7-4.5 1-6.7a43 43 0 0 1 1.6-7c2.8-8.8 8-16.7 14.1-23.5a99.4 99.4 0 0 1 22.6-18l13-8c0 .5.4 1 1 1.2 1.6.5 3.4 1 4.7 2.3 1.4 1.3 3.6-.8 2.1-2.2a14 14 0 0 0-5.3-2.8c2-1.3 4-2.6 6.2-3.3 2-.6 4.8 0 6.4-1.5 1.3-1.1 1.7-3.2 2.1-4.8.6-1.9 1.1-3.9 2-5.7a11 11 0 0 1 2.1-3.5 7 7 0 0 1 2.5-4c3.6-2.3 8 0 9.5 3.4l3.8.3a116.4 116.4 0 0 0 22.8-.7c8.9-1.2 17.5-3.6 26.3-5.5l.2-.4c1.9-3.1 6.6-2.6 9.5-1.4 1.3.5 2.6 1.2 3.3 2.4.8.5 1.5 1.1 1.9 1.8 1 1.4 1.6 4.1 3.5 4.4h3.7c1.5.3 3 .8 4.4 1.4 11 4.8 22.2 10 34 12 2.9.3 5.7.8 8.1 2.3 2 1.3 3.5 3 5.1 4.7a7.7 7.7 0 0 0 5.2 2.6c2.7.4 5 1.1 7 3.1 1.7 1.7 2.8 3.8 4.1 5.7 1.3 2 3.3 3 5.3 4.2a60 60 0 0 1 13 9.8c8.2 8.2 13.2 18.8 18.1 29a175 175 0 0 1 20.3 70c1 12.8 1.2 25.5 2 38.2l1 19c.3 6.4.8 12.7.7 19a106.2 106.2 0 0 1-10.3 44c-1 2.4-4.8 2.2-6 0l-.7-1.5c-3 0-6.2-.2-9.2 0-5.4.6-10.9.9-16.3 1.2-10.7.7-21.5 1.1-32.2 1.7l-3.1.2c7.6-23.7 6.6-49.3 7.9-73.9 0-2-3-2-3.1 0-1.2 24.7-.2 50.4-8.1 74.1l-9.2.8c-2.5.3-5 .7-7.5.6-2.8-.2-5.6-.8-8.3-1.4-5-1-9.9-.5-15 0a591.5 591.5 0 0 1-81.5 1.6 258 258 0 0 1-15.6-1.4c-5.4-.7-10.7-1.8-16-2.5-5.4-.6-10.2 1.1-15.5 1.5-5.3.3-10.8-.8-16-1.4l-5.3-.7a710 710 0 0 0 4.8-45.9c.1-2-3-2-3.1 0a694.8 694.8 0 0 1-4.7 45.6c-9.2-1-18.3-2.2-27.4-3.8-2.6-.5-5.1-1.3-6.7-3.6a7 7 0 0 1-.8-5.7Z" clip-rule="evenodd"/><path fill="#EDB98A" fill-rule="evenodd" d="M72.5 117c.8-7.2-.2-22.4-.3-23.4-.4-5.8 2.3-29 7.5-26.8 8.6-6.9 20.2-8.4 31-9.1 22.4-1.5 46.3 2 63.6 17 8.5 8 16.9 19.4 16.2 31.3 7.8 11.2 18.8 26.7 9 39.9-3.2 4.2-8.5 5.8-12.6 9-8.3 6.7-13.6 16.3-22 23-22.2 20-60 24.3-82 1.5-16.9-16.6-14-41.4-11-62.4 2-14.2-.9 14.2.7 0Z" clip-rule="evenodd"/><path fill="#000" fill-rule="evenodd" d="M140.6 26.8a78 78 0 0 0-18.3-1.7h-.4a29 29 0 0 0-14.5 3.3.8.8 0 0 0-1-.2c-4.7 2.3-10 4-15 5.6A68 68 0 0 1 76 36.9c-2 .2-3.7 2.3-2.5 4.2l1 1.4-1.5-.2c-1.6-.1-3.2 1.6-3.1 3.1l.3 3c-.6 0-1.2 0-1.8.3-3 1.2-2.7 4.7-2.5 7.4.3 3.7 1.7 7.6 4.3 10.4A18.6 18.6 0 0 0 65.4 80v.7c.2 2.3.6 4.9 2.2 6.6 1 .8 2 1.2 3 1-.6 5.4-1 10.8-1.4 16.2l-.2 2.6a477 477 0 0 0-1.2 37.5c.1 11.7 2.4 23 9.5 32.5 6.6 8.6 15.9 15 26.5 17.4a47 47 0 0 0 25.5-1.4c3-1.1 5-2.7 7-5.1 1-1.1.5-3.6-1.4-3.3-2.8.3-5.3.7-8 1.6h-.4a39.8 39.8 0 0 1-25.4.1c-9-2.8-16.7-9.2-21.7-17.2a56 56 0 0 1-6.4-31c0-12 .5-24 1-35.8l.2-2a2245.5 2245.5 0 0 0 1.4-24.2c2.2-1.3 4.2-3.1 5.5-5.3a55 55 0 0 0 7.9 2.5 45.8 45.8 0 0 0 17.8.8 52.7 52.7 0 0 0 6.2 2.4c4 1.7 8 3.1 12.3 4.2l1 .3c2.2.5 4.6 1 7 1.2l1.3.4c2.1.5 4.4.7 6.6.5 2.1-.2 3.7-2.3 2.5-4.4l-2.6-4.4a83 83 0 0 0 9.4 3.2c3.2 1 6.5 1.7 9.7 2.4l5.3 1c1.2.3 3.2.5 4.2 1.3 1.1.9 1.4 3 1.8 4.3a111.5 111.5 0 0 1 5.2 26.2c.2 3.5.1 7.1.5 10.6.2 2 2.2 2.9 3.7 1.6l.5-.5.3-.2a26.3 26.3 0 0 0 4.1-4.6l.3-.2c3-2.3 8.3-5.4 11.3-1.5 1 1.2 1.5 2.8 1.9 4.3l.7 2.7c.5 1.8 1 3.5 1.2 5.3.5 4 .3 8.7-2.5 12a7 7 0 0 1-4.4 2.4c-.9.1-1.8 0-2.8-.1-1-.2-1.9 0-2.8 0-1.5-.2-2.2 1.6-1.6 2.8a7 7 0 0 0 1 1.6l-.9.9c-.9.3-1.7.9-2.3 1.7a4 4 0 0 0-.8 2.1l-.1.6-.9 1.4-.5.8a42 42 0 0 1-7.3 8.8c-2.8 2.5-5.8 4.8-8.5 7.5l-.3.4c-2.4 2.5-5 5.7-4 9.4.2 1 1.6 1.7 2.4 1 2.9-2 4.3-5.4 6.7-8 2.4-2.6 5.2-5 7.6-7.5a30 30 0 0 0 5.6-8.4 4 4 0 0 0 2.5 1.3c1.9.2 3.7-.9 4.5-2.6l1.6.7c3 .9 4.8-2.4 3.7-4.8-.6-1.3-1.3-2.4-2.2-3.3 2.8-.4 5.7-1.9 7.6-3.7 4.7-4.7 5.3-11.6 4.3-17.8a46.7 46.7 0 0 0-3.5-11.3l.3-.1c.9-1.2 2-2.2 2.6-3.5.5-1.2 1.2-2.4 1.6-3.6 1-2.6 1.4-5.4 1.8-8.1a66.4 66.4 0 0 0-10.4-42.5l.7-.6.1-.1.2-.2c1.5-1.3 1.3-3.8 0-5.1l-.4-.4a11 11 0 0 0-2.2-1.8 4 4 0 0 0 .3-2.9c-1.1-3.7-6.5-3.6-10-2a63.7 63.7 0 0 0-12.4-8.6 133 133 0 0 0-34.9-12Zm55.8 98.5c-2-.6-4.7.8-6.5 1.6a26 26 0 0 0-6.2 4.3c-.9.8-1 2.1-.8 3.3v.3c.3 1.3 1.7 2.2 2.9 2.2 2.5 0 3.7-2.3 5.1-4.1l.7.8.2.1c.5.5 1.2.8 2 .8.5 0 1-.2 1.6-.4 1.2-.7 1.7-2.3 1.4-3.6-.2-.8-.7-1.4-1.3-1.9l.2-.1c.5-.4 1-.7 1.3-1.3l.1-.1c.4-.7.1-1.6-.7-1.9Z" clip-rule="evenodd"/><path fill="#000" fill-rule="evenodd" d="M101.3 164.1c2.8.8 5.8.9 8.7 0 2.7-.7 5.4-2.4 7.3-4.7 1.7-2 2.8-4.4 2.8-7a1 1 0 0 0-.3-.7 1.3 1.3 0 0 0-1.5-.3 71.5 71.5 0 0 1-1.4 1.7c-2.4 2.9-4.7 5-8.3 5.9-2 .4-3.9.2-5.7-.4-1.9-.7-3.6-2-5-3.5-.6-.8-1.3-1-2-1-.8 0-1.6.3-2.2 1-.5.5-1 1.3-1 2.1 0 .7.2 1.5.9 2.2a17 17 0 0 0 7.7 4.7Zm0-36.9c-2.9 1.8-7.3 5.9-4.2 10.3 3.7 3.8 9-.6 11.6-2.6 2.5-1.5 5.2 2.5 3 4.3-19 14-26.6-11.5-11.8-14 1.6-.3 2.2 1.5 1.4 2Zm27.3-7.8a3 3 0 0 1 3.2-.2c1 .4 2.6 1.9 3.8 3.8a7.5 7.5 0 0 1 1.2 4.4c0 .3.1.6.4.8.1.2.4.3.7.3h.7c.4-.2.6-.5.7-.7.8-2.1.5-4.5-.4-6.7-1.3-3-3.5-5.4-5-6.2a8.2 8.2 0 0 0-8 0c-2 1.1-3.4 3-4.7 5l-.9 1.2c-.6.8-.6 1.6-.4 2.3a3 3 0 0 0 1.7 1.7 3 3 0 0 0 2.3 0 3 3 0 0 0 1.6-1.6 9 9 0 0 1 3-4ZM81 122.8c.6.3 1.1.4 1.8.2.4-.1.8-.4 1.1-.7.3-.3.5-.6.6-1 .2-1 .8-2 1.6-2.7a3 3 0 0 1 2.5-.6c1 .2 2 .8 2.7 1.6l.6.8c.3.6.6 1.1 1 1.5.3.2.5.3.8.3h.3c1-1.1 1.2-1.9 1.2-2.7 0-.8-.4-1.6-.9-2.4a9.5 9.5 0 0 0-5-3.6c-2.2-.4-4.3.1-6 1.3a8.4 8.4 0 0 0-3.5 5.3c0 .5 0 1 .2 1.5s.5 1 1 1.2Zm42.7-22.6c1.3 1.3 2.8 1.5 4.4 1.6l2.2.4c1.8.4 3.6 1 5.3 1.9a19.7 19.7 0 0 1 7.7 6.7l.2.4a10.6 10.6 0 0 0 .6 1l.4.5.5.1c.1 0 .3 0 .4-.2.7-.5.9-1.4.8-2.4 0-1.5-.5-3.1-1-4.1a22.1 22.1 0 0 0-4.7-6.5 23 23 0 0 0-7.4-4.5 15 15 0 0 0-5.6-1.1c-1.4 0-2.7.4-3.8 1.4-.6.6-1 1.5-1 2.4 0 .9.4 1.8 1 2.4Zm-45.3 11.4c0 .2.2.3.3.3a.7.7 0 0 0 .8-.1l.2-.4c.9-3.7 2.5-6.5 6-8.3 1.8-.9 3.8-1.4 5.6-1.9l1.8-.3c1.8-.2 3.6-.5 4.8-2 .7-1 1-2 .9-3-.2-1-.8-2-1.8-2.5-2.6-1.4-5.8 0-8.4 1l-.6.3c-2.6 1.1-5 2.5-6.8 4.6-1.5 1.6-3 4-3.5 6.4-.5 2.1-.4 4.2.7 6Z" clip-rule="evenodd"/><path fill="#000" fill-rule="evenodd" d="M93.2 170.3c3.6-3.2 7.6-9.6 12.8-4.5 1.2 1.4 1.7 4.6 3.7 5.3 2.6.8 5.1-2 6-4 3.6-11.7-11.3-15-19.8-13-4.1 1.7-7.2 8.5-7.4 12.1 0 2.4 2 6 4.7 4.1Zm-27-18v-.4c1.7-.6 3 0 3.7 1.1l-.2.9c.6 1.3 1.2 2.8 2 4l.5-.1c13.4 1.4 6.8-12.7 20.5-16.2 10.5-1.7 29.6.3 34.5 11.2 4 17.5 24 5.3 30.5-3.8 7-8.3 11.5-18.4 15.8-28.2 1-2.1 3.8-.6 3.5 1.4 4 8 3.9 17.7 4.9 26.6 1.7 17.6 3.3 42.4-13 53.2-21.4 24.1-74.8 32.6-99.4 10.4-8.6-18.3-7.5-40.7-3.4-60Z" clip-rule="evenodd"/><path fill="#000" fill-rule="evenodd" d="M80.2 98.6c-9 0-14.2 2-16.1 2-.9.1-1.6.2-2.3.5-2.7 1-3.2 3.9-1.6 5.7.1 3.7-.4 8 .5 11.8 1 15.7 8.4 18.4 12.6 19.3 2.1.5 4.6.7 6.9.2 3.8-.1 7.6-1.3 10.8-3.4a20 20 0 0 0 9-12.7c.5-2.5.7-5.2.5-7.7v-.4c1.4-.7 3-.8 4.8-.9h2.5c.8 0 1.5.2 2.3.4.9.2 1.7.6 2.4 1.3v1a61 61 0 0 0 1 7.3 18 18 0 0 0 4.4 9.3c.8 1.3 1.9 2.4 3.2 3.4a24.2 24.2 0 0 0 16.6 4.4 24.9 24.9 0 0 0 20-14.2v-.3c1.1-3 2-6.7 5.6-7.4l.7-.1c1.6-.3 3.1-.7 4-2.3a5 5 0 0 0 .8-2.3l1.6.2c4.4.9 30.8 1.7 32.9 1.7 0 0 4 1.7 5.7.4 1.2-1 1.6-2.2 1-3.6-1-2-5.6-3.3-7.6-3.7 0 0-32.5.3-34.8-.2-1.5-1.5-4-1.2-6.2-1.5a46.5 46.5 0 0 0-30.5-5.2l-5 1c-2.9.3-5.7 1-8.7 1.7l-.5.2c-3.1.8-6.3 1.5-9.4 1-2.6-.5-5.1-1.5-7.5-2.6l-.3-.1a53 53 0 0 0-19.3-4.2Zm46 8.7c2-.4 2.8 2.6.9 3a5 5 0 0 0-3.3 2.2l-.1.1c-1 1.7-3.7.1-2.7-1.6 1.2-1.9 3-3.2 5.3-3.7Zm-56.6-1.8c.7-.5 1.7-.1 2.1.5.5.8.2 1.6-.4 2.1h-.1c-.6.5-1.2 1.2-1.2 2-.1 2-3.2 2-3.1 0a6 6 0 0 1 2.7-4.6Z" clip-rule="evenodd"/><path fill="#AE5D29" fill-rule="evenodd" d="M481.5 272.7c-3-11.8-5.8-16.7-11.1-20.8-5-3.8-12.4-7-23.1-9.4-11.2-2-11.5-7.7-14.3-17-.8-2.8-4.9-3.6-6.6-1.6a8 8 0 0 0-.8-.7c.3-1.3-1.7-5.2-1.6-6.4.7-13.4-3.7-20-14.6-22.6a122 122 0 0 0-20.7-.2c-10.1 2.8-20 11.7-18.6 22.3a19.8 19.8 0 0 1-11.1 8c-7.6 1-3.8 108.9 9.4 173.5 5.7 27.7 141.3-19.5 135.2-33.3.9-2.6-.7-5.4 0-8 .5-2 1.9-2.7 2.5-4.6 1-2.6 0-6.2-1.1-8.9-.4-1.3.8-2.8 1.1-4.2 1.6-6.5-2-5.9-4.7-10.2l.7-3.1c.4-2.2-.6-5-1.5-7-.6-1.2-2-2-3.2-1.8 1.3-4.4 3-8 4.7-12.3 3.1-7.5 6-15.3 10.6-22 1.8-2.9.3-5.4-2.7-5.6-9.6-.6-19-2-28.5-4.1Z" clip-rule="evenodd"/><path fill="#EC7495" fill-rule="evenodd" d="m466.5 273.6-21.9 37.1s5.2.5 7.3 1.6c2.1 1 11.8 13.3 11.8 13.3l1.5 6.7-3.6 5.5 1.4 3.4s1-2.3 3.5-4.1c2.6-1.8 8.1-4.8 8.1-4.8s-1.8-1-1.8-2.1c0-1.2-1.7-6.1 1.8-8 3.5-1.9 21.5-6.3 21.5-6.3l18.2-38.4-47.8-3.9Z" clip-rule="evenodd"/><path fill="#9DDADB" fill-rule="evenodd" d="m368.7 224.6 69.6 12.2 32 15 5.3 4.1-31 54.8-47.8 8.8-12.2 31.6 2.5 35.7 77.8-9.3 33.6-4 7.8 31.9-1.4 13.1-2 6.7-83.3 22.4s-42.3-4-49.9-4c-7.5 0-62.5 5.4-62.5 5.4l-12.8-1.4S266.2 418 262 407.3c-4.4-10.6-13.9-74.8-13.9-74.8l1-10 24.4-62.6s3.3-3 7.4-8c4-5 87.9-27.3 87.9-27.3Z" clip-rule="evenodd"/><path fill="#000" fill-rule="evenodd" d="M494.7 315.2c-6.2.3-12.5 1.8-18.2 4.5-2.4 1.1-4.5 2.7-5.1 5.3-.3 1.4-.2 2.8 0 4.1 0 1 0 2.4 1 3l.5.4a57 57 0 0 0-6 3.2 12.7 12.7 0 0 0-4 4.6l-.1-.6a16.7 16.7 0 0 0-6.4-9c-.3-1.2-4.1-6.7-7.6-6.5-3.9.2-7 .5-10.4 2.2h-3.8c-.2 0-.2.4 0 .4a83.3 83.3 0 0 1 10.2 2c2.8.7 5.7 1.4 8.4 2.7a15 15 0 0 1 7.6 14.6c-.1.9-.5 3.7-1.8 3.4-1-.3-1.5-2.5-1.9-3.4a9.5 9.5 0 0 0-5-4.6c-2.6-1.2-5.3-2-8-2.9l-4.5-1.5c-1.6-.5-3-1.3-4.7-1-1 .3-1.1 1.5-.5 2.2.8 1 2 1.3 3.3 1.8l4.8 1.6c2.5 1 5.2 1.6 7.6 2.7v.2c-.3 0-.5.1-.5.4.4 2.2.9 4.8.3 7-.4 1.8-2 3.8-4 3.3.3-.3.4-.8.2-1.3-.8-1.7-11.3-8.5-12.3-6 0 .1 0 .2.2.2.8-.2 2.1 1.2 2.7 1.6l2.8 1.9 3 2.2c.7.6 1.3 1.2 2.1 1.5-.4.2-.8.6-1 1.1a4.5 4.5 0 0 1-2.4 3c-1.3.7-2.9.3-4.3.5-2 .2-3.7 1-5.1 2.4-3 2.8-4.5 7.8-8.7 9-2.5.9-5.3.4-7.8 0-2.8-.4-5.6-.7-8.4-.3-2.8.4-5.3 1.4-7.8 2.5a27 27 0 0 0-7 4l-1.2-4c-.8-3.2-1.2-6.5-1.3-9.7-.1-3.1 0-6.2.3-9.3l.5-4.7.2-1.2c3.7-2.2 7.6-3.9 11.5-5.6a14.2 14.2 0 0 1 .4-.2c.4-.2.7-.6 1-1a45.4 45.4 0 0 0 13.8-14.8c1.5-2.6 2.9-5.1 4.8-7.3 2-2.4 4.5-3.8 7.5-4.5a80.4 80.4 0 0 1 21.5-1.5c2 .5 3.1 2 4.4 3.6a107.6 107.6 0 0 1 6.4 9c.6 1 1 2 1.4 3l.5 1c0 .4-.1.8.3.8-1.7 0-2.9 4.3-1.2 4.2 2.4-.1 3.7-3 3.2-5.5-.9-4.6-5.4-10.1-6.3-11.3-2-2.6-4-6-7.2-7.1h-.1c.9-1 1.6-2 2.3-3 .7-1.1 1.6-2.4 1.8-3.7a.7.7 0 0 0-1.3-.6c-.7 1-1 2.4-1.6 3.6l-1.7 3.5a16 16 0 0 0-4-.7 175.3 175.3 0 0 0 9.7-15.7c1.7-3 3-6.2 4.6-9.2l2.7-5.2 1.1-1.7.3-.3.3-.1c.6-.3.8-1.1 1.2-1.6.6-.7 1.3-.8 2.3-.8h6l9 .4 2.7.2c4.3.2 8.6.6 13 1 3.7.4 7.6 1 11.4 1.2a362.6 362.6 0 0 1-17.6 36.4Zm-28.6 31.6c-.8.4-1.7.8-2.4 1.4l.1-2.6c.6.6 1.4 1 2.3 1.2Zm35.6-21.1h-.2a6.1 6.1 0 0 0 1.2 7c1 1 3.2 2 3 3.6 0 1.3-1.4 2.4-2 3.5-.5 1-.7 2-.3 3.1.6 1.4 2.2 2 2.7 3.3.7 1.7-.4 3.8-1.2 5.3-.7 1.4-1.7 2.8-2.3 4.2-4.3 2.2-13.9 6.2-15 6.4a200 200 0 0 1-17.1 2.7c-1.4.2-2.9.4-4-.7-2.2-2-1-5.5.4-7.6v-.1l4-1 7.6-1.2c5.2-.7 10.5-1.2 15.8-1.7 1.3-.2 1.3-2.2 0-2-7.6.6-15.2 1.3-22.6 2.7l-5.6 1.3c-.9.2-1.8.5-2.7.5h-.2c-1.8 0-2-1.6-1-2.8 0-.2.2-.4.3-.5 1.8-2 4-3.5 6.2-4.9 2.4-.3 5-1 7.4-1.6l18-4.2c1.3-.2.8-2-.4-1.8l-13.8 3.1-6.7 1.5c-1.3.3-3 1-4.6 1.2h-2.2c-2.2-.6-2.3-3.3-1.3-5 1-1.8 3-3 4.8-4 3.1-1.8 6.4-3 9.6-4.6l1.7-.4c3.3-.7 7.1-1 10.2-2.4 1-.4.4-1.8-.5-1.8-2.4 0-5 .9-7.3 1.4l-7.7 1.7c-.2 0-1.8.5-2 .4l-.2-1a9 9 0 0 1-.1-3.3c.3-2.4 2.4-3.6 4.5-4.5a48 48 0 0 1 18.3-4.2c1.4 0 2.5-.3 3.2 1 1 2.2 1.7 5 2 7.4Zm-6.5 77.5c-1-3.5-.7-7.2-1.4-10.8a59 59 0 0 0-1.4-5.4c-.4-1.5-1.1-3-1.2-4.5 0-.1 0-.2.2-.1a10 10 0 0 1 3.3 4c1 1.6 1.7 3.3 2.3 5.1 1.2 3.7 2.2 8 .7 11.7-.5 1.1-2.1 1.3-2.5 0Zm-39.4 26.5c-1.5-1-2.6-2.5-4-3.8-1.2-1.3.8-3.2 2-2 1.1 1.1 2 2.5 3.4 3.4.6.4.9 1.2.5 2-.4.5-1.3.8-2 .4Zm-8.4-40.4c2.7-1.2 5.4-2.5 8.3-3.3 1.7-.6 2.4 2.1.7 2.6-2.6.8-5.1 2-7.6 3.1-1.7.7-3-1.7-1.4-2.4Zm-29-.8c-.7-1.7 2-2.4 2.6-.8l2.4 5.6c.7 1.7-2 2.4-2.7.8-.7-2-1.6-3.7-2.4-5.6Zm-28.7 33.1c-.5.6-1.2 1-2 .5-.5-.3-.9-1.3-.4-1.9a49 49 0 0 1 4.2-5c1.3-1.4 3.2.6 2 1.9-1.4 1.4-2.6 3-3.8 4.5Zm-4.1-186 3.5 3c1.2 1.3-.7 3.3-2 2-1-.9-1.8-1.8-3-2.5-.5-.5-.8-1.3-.4-2 .3-.6 1.3-.9 1.9-.4Zm41.7 44.8a10 10 0 0 0-1.4 4.5c0 1.8-2.9 1.8-2.8 0 0-2.2.8-4 1.8-6 .8-1.5 3.2-.1 2.4 1.5Zm15.3-36c1.5-1 2.9 1.5 1.4 2.5l-3.6 2.4c-1.5 1-3-1.5-1.4-2.4l3.6-2.4Zm-66.4 62.8c-.2 1.8-3 1-2.7-.7.4-2.7 1-5.4 1.6-8 .5-1.7 3.2-1 2.7.7-.7 2.7-1.2 5.3-1.6 8Zm-9.7 31.9c-1.8 0-1.8-2.8 0-2.8 1.6 0 3.2.5 4.7.8 1.8.5 1 3.2-.7 2.7-1.3-.3-2.7-.7-4-.7Zm-3.6 64-1.9 1a2508.1 2508.1 0 0 0-11.5 5.2l-15.5 7.1-15.9 7.3-7.4 3.4c-2.2 1-4.8 2.7-7.2 2.8 0 0-.1-.1 0-.2.8-1 2.2-1.6 3.4-2.2l3.6-2a459.1 459.1 0 0 1 22.8-11.6l15.6-7.7a2640.5 2640.5 0 0 1 11.4-5.4l1.7-.8c.8-.3 1.4-.3 2.2-.5 1.4-.3 2 1.4 1 2.1-1 .6-1.4 1.1-2.3 1.6Zm-18.6 28.6c-.2-.7.4-1.6 1-1.7.8-.2 1.4.2 1.7 1a18 18 0 0 0 3.3 5c1.2 1.2-.8 3.2-2 1.9-1.8-1.8-3-4-4-6.2ZM330.7 387c-1.3-1.3.7-3.3 2-2l3.6 3.6c1.2 1.3-.7 3.2-2 2l-3.6-3.6Zm-37-5.9c-2.5.8-5.5 1.5-7.3 3.7 0 0-.2 0-.2-.2 2.3-4.6 8.8-6.3 13.2-8l9.8-3c-.4-3.7.5-7.7.8-11.4a245.1 245.1 0 0 0 .8-24.2c-.1-4-.6-8-.9-12.1 0-.4.6-.4.7-.1 1.3 3.7 2 7.9 2.4 11.9a177 177 0 0 1-.1 24.8l-.5 6c-.2 1.5-.2 3-.5 4.5l5.9-1.4c6.3-1.4 12.6-2.7 19-4.3l9.1-2.4c2.9-.8 6-1.7 9-2 1-.2 1.1 1.3.4 1.8a34.2 34.2 0 0 1-8.4 3.8c-2.8 1-5.7 1.6-8.6 2.3-6 1.5-12 2.7-18 4a283.5 283.5 0 0 0-26.5 6.4Zm-14-74.1c-1.6.9-3-1.5-1.4-2.4 2-1.2 4.2-2.1 6.3-3 1.7-.6 2.4 2 .8 2.7-2 .8-3.9 1.6-5.7 2.7ZM274 410c-1.6.9-3-1.5-1.4-2.4 2.2-1.3 4.5-2 6.8-3.2 1.6-.8 3 1.6 1.4 2.4-2.3 1.1-4.6 2-6.8 3.2Zm-2.5-58.6c1.5 1.4 3.5 2.1 5.4 2.9 1.6.6.9 3.3-.8 2.6-2.3-.9-4.7-1.8-6.6-3.5-1.3-1.3.7-3.2 2-2ZM288 272c1.6.7.9 3.4-.8 2.7l-5.6-2c-1.6-.6-1-3.3.8-2.7 1.8.8 3.7 1.3 5.6 2Zm29.2-31.6c1.8-.3 2.5 2.4.8 2.7-2.2.4-4.4.8-6.4 1.6-1.7.6-2.4-2-.8-2.7 2-.8 4.2-1.2 6.4-1.6Zm9.7 77c-1.6-.8-.2-3.2 1.4-2.4 1.7.8 3.4 1.4 5.3 1.8 1.7.4 1 3-.8 2.7-2-.4-4-1.2-6-2.1ZM336 274c1.7-.4 2.5 2.2.8 2.7-3 .8-6.2 1.3-9.2 2-1.8.4-2.5-2.2-.8-2.7 3-.7 6.2-1.1 9.2-2Zm38.7-13.6c1.8.4 1 3-.7 2.7a31 31 0 0 0-5.6-.3c-1.8 0-1.8-2.8 0-2.8 2.1 0 4.2 0 6.3.4Zm126.4 14.5-13.7-1h-.6v-.2a32.5 32.5 0 0 1-3.6-6.8c-1-2.4-1.8-4.8-3.2-6.9a22.4 22.4 0 0 0-6-6 28 28 0 0 0-4 3.3c-1.3 1.3-3.3-.7-2-2 1-1 2.2-2 3.4-2.8l-4.2-2.5c-5.2-3-10.6-5.8-16-8.3l-7.8-3.3c-1.4-.5-2.8-1.3-4.2-2 .1-1-.2-2-1-2.7l-1.6-1h-.3.3c.4.2.4.1.1-.1 0-.6-1.1-1.8-1.4-2.3-.9-2-1.1-4.1-2.4-6a6.8 6.8 0 0 0-7.7-2.5c-.2-3-.3-6.2-1.5-8.9h-.1c-1.2 2-1.3 4.3-1.4 6.6 0 2.2 0 4.4.3 6.5a10.2 10.2 0 0 1-3.5 1.8c-1.9.7-4 1-6 1-5.2.3-10.5-.2-15.7-1.1-5.2-1-13.1-2.3-17.8-4.9-3-1.7-5.8-3.8-8.7-5.8 1-3.4 1.3-7 .3-9.8-.2-.3-.7-.4-.8 0-.6 2.7-.8 5.4-1.7 8v.2l-.9-.6c-.6-.4-1.4 0-1.8.5-6 9.5-15.5 10-25.5 11.7a210.2 210.2 0 0 0-32.3 7.5 71 71 0 0 0-32.1 21.4c1.5.2 3 .5 4.4 1 1.7.5 1 3.1-.8 2.6-1.8-.6-3.7-.9-5.6-1-5.1 7-9.2 15-12.7 23-6.6 15-11 31.2-13 47.6l3.4-2c1.6-.7 3 1.7 1.4 2.5-1.8.9-3.5 1.9-5.2 3a184 184 0 0 0 7.1 72.9c2.6 8 6 16 11.1 22.8a40.1 40.1 0 0 0 12.7 11.1c2.2 1.1 5 1.5 6.8 3 .6.5 1.1 1.2 1.5 2-.2 1.4-.3 2.9.1 4.3.1.5.5.8 1 1v.4-.4l.5.1c5.3 0 10.5 0 15.8-.3l-1.3-3.7c-.5-1.7 2.2-2.4 2.7-.8l1.5 4.4 17-.6c12-.4 24-.6 36-.8 18.6-.4 37.4-1.2 56.1-.4l2-4c.9-1.7 3.3-.3 2.5 1.3l-1.5 2.8 11.4.8c6.4.6 12.8 1.7 19.2 2.4 6.5.7 13 .5 19.4-.5 1.2-.2 1.9-1 2.2-1.8.3-.4.6-.8 1-1 .3-.3.8-.5 1.3-.7l2.8-.7 3.2-.3a25.1 25.1 0 0 0 7.2-2 31 31 0 0 0 9.6-8.3l2.8-4c1.5-2.4 2.7-5 4-7.5.5-.8 1-1.5 1.3-2.3a29 29 0 0 0-7.7-1.4c-1.8 0-1.8-2.8 0-2.8 3 0 6 .8 8.8 1.6l.4-1 .9-2.5.4-1.2a1821.4 1821.4 0 0 1 2.4-10.2c.3-1.4.6-2.8.7-4.3.5-3.5 1-7 1-10.5a72.3 72.3 0 0 0-1-10.8l-1-6.4-1.2-4.3c-.9-3-2-6-3.3-8.9 0-.1-.4-.5-.6-.5-.1 0-.4.1-.3.3l-.2-.4c0-.2-.3-.5-.5-.5l.1-.1c1.3-1.5 2-3.4 3-5.1.7-1.5 1.4-3 1.6-4.5.2-1.4 0-2.8-1-4-1-1.2-2.8-1.8-1.8-3.7 1.2-2.1 3-4 1.2-6.4-.9-1.2-2.3-1.9-3.3-3a6.3 6.3 0 0 1-1.7-4.5h.2c1-3.1.2-6.5-.8-9.4-.6-1.6-1.7-2-3.1-2.2a473.6 473.6 0 0 0 17-37c.3-.6-.2-1.4-.8-1.5-4.3-1-8.8-1.2-13.2-1.7Z" clip-rule="evenodd"/><path fill="#AE5D29" fill-rule="evenodd" d="M450.8 129.7c-.8-10.7.5-22-3.6-32-7.2-16.9-27.3-22.5-42.8-29-6.3-1.8-27.2-2-34.5-4.5-16.6-5.5-20.5-12.1-33.7-1.6a14.3 14.3 0 0 0-4.6 6.5c-.2 1 0 2.2.7 3-5.7 5.9-8 14.6-5.1 22.4 9.5 20.2 9 31.1 6 52.9-4 20.2 5.2 27.7 20.3 38.7-.6 1.2-.7 2.8.1 3.8 17.5 24.8 50.6 36.6 79 24 11.5-5.1 16.7-17.4 19.6-28.5a79.5 79.5 0 0 0 1.7-38.1c-1.1-5.9-2.6-11.7-3-17.6Z" clip-rule="evenodd"/><path fill="#9FD8E5" fill-rule="evenodd" d="m325.1 99.4 10.4 7L373 66.8 360.5 57s-22.6 16.8-27 21.2c-4.5 4.4-8.4 21.2-8.4 21.2Z" clip-rule="evenodd"/><path fill="#000" fill-rule="evenodd" d="M349.6 11.4c2.1-.4 3.7 1 4.5 2.8v.1l.8 1.9c5.4-2.6 13-2 16.4 3.4 2.4 3.7.9 8.2 0 12.3l-.6 2.6c1.1.8 2 2 2 3.4v.1l-.3 3.7A19.2 19.2 0 0 0 376 37c3-4.5 9.6-.6 7.2 4.1l-1.6 2.7a25 25 0 0 0-1.5 3.8c1.1.5 2 1.6 2 3.3.3 4-1.8 7.2-5 9.3a4 4 0 0 1-3 .5l-.4.7c1.3 1 2.5 2.2 3.5 3.6 3-.5 6.2-.7 9.2-.7 3.8-1.8 8.3-1.8 12.3-1.1 2.6.4 5.1 1.3 7.7 2 2.7.6 5.4.6 8.1 1 3.5.6 6.5 2.2 8.4 4.7 2 .1 4.2 1 6 2.1l12.7 8.2c1.6 1 2.2 2.7 2 4.5v.2l-.2.7.3.5c1.3 1.8 2.7 3.8 3.5 5.8a62 62 0 0 1 8.2 17.2l.6 2.7c.2 1.3-.1 2.3-.3 3.5l-.6 4.7c-.1 1-1 1.5-2 1.6a200.4 200.4 0 0 1 1.7 19.3 9 9 0 0 0 4.6 3c2 .6 4.2 0 6.2-.7 1.2-.5 2.3 1 1.7 2.1-2 3.3-6 3.3-9 1.8a8.5 8.5 0 0 1-3.3-2.6l.1 3.3v1c.7 11.6 2 23.7-.1 35.2a44.2 44.2 0 0 1-40.4 36.4 55.6 55.6 0 0 1-23.8-4.3c-4.4-1.8-2.7-5.3.4-4.3a56.5 56.5 0 0 0 23.4 3.2c20.3-2.6 37.5-12.8 35.7-56.5-.2-6.3-1-12.5-1.2-18.7-.1-6 0-12.1-.3-18.2l-.1-2-.4-7.3-.7-2.8a38 38 0 0 0-2.8-7.3 2 2 0 0 1-.9.4 10.8 10.8 0 0 1-9.7-2.5l-.9-1c-1 0-2.2-.4-2.8-1.2-.8-.9-1-1.8-.6-2.6V96c-1 2.3-2.8 4.4-4.8 5.8a19.2 19.2 0 0 1-11 3 75.3 75.3 0 0 1-15.9-2l-.1.2a11.8 11.8 0 0 1-13 2.4c-2.6-1.2-4.8-3-6.7-5l-.2 3.2v.4c-.3 2-.6 4.1-2.1 5.6-2.5 2.3-6 1.4-8.8-.1v.2l2.3 7.7.1.6a27 27 0 0 1 1.4 5.6c.3 3.7-2.1 7.3-6.2 6-2.2-.6-3.9-2.4-5.5-3.8l-1-1A99.5 99.5 0 0 1 363 152c0 .5-.5.9-1 .9-1 0-2.2-.2-3.3-.6h-.2c-2-.3-3.7-1-5.2-2 .3 1.1.5 2.3.4 3.6 0 .3-.5.4-.6.1-.9-4.4-6-7.7-10.4-6.9a12 12 0 0 0-9.2 9.7 19 19 0 0 0 4.1 14.7 10 10 0 0 0 5.9 3.6 7 7 0 0 0 3.2-.2c.5 0 .9-.3 1.3-.5.6-.2 1.3-.2 2-.5 1.2-.6 2.6.6 1.9 2a6 6 0 0 1-2 2.6l1.7 2.6a61.5 61.5 0 0 0 9.3 9.9l.7.6c1.8 1.4 3.3 2.6 4.5 4.6 1 1.6-.3 3.7-2.1 3.7-5.6-.1-9.8-5-12.7-9.4l-1.1-2-.5.6.3.9c1 2.5-3.1 4.2-4.3 1.8-.9-1.7-1.9-3.4-3-5a2 2 0 0 1-1.7-1c-1-1.3-2-2.6-2.8-4l-1.5-1.3-.4.4c-.6 1.4-1.4 2.7-2.4 4l-.2.2c-1.8 2.4-4.2 4.8-7.2 5.3-1 .2-1.8-1-1-1.7 2-1.8 4.5-3.1 6.5-5.2 1-1 1.8-2.2 2.5-3.4l.2-.3.4-.6-2.6-1.8c-2.4 2-5.5 3-8.2 4.7l-.2.2c-2.4 1.6-5-2-3-4s3.9-4.6 5.7-7a14 14 0 0 1-1.4-5.5l-.2-1.6c-1.3 0-2.7-.5-3.8-1.3l-.5-.3a10 10 0 0 1-4.2.6c-3.3 0-4.6-3.8-2.6-6.2 2.1-2.4 5.8-3 8.7-1.8l.3-.1c-.2-.7-.1-1.2 0-1.8v-.3a8 8 0 0 1-1.1-6c0-.4.2-.7.3-1-.2-.6-.4-1.2-.4-1.8l-.2-.3a5 5 0 0 1 .2-6.1v-.3l-.2-.6c-1.3-1.3-2.3-3-2.1-5 .1-1.2.6-2.2 1.3-3v-1.3c-1.1-3.1-1-6.9-.1-10.4-.2-.5-.3-1.1-.3-1.7.1-2.6 2.3-5 5-5l1 .1a7 7 0 0 1 .6-2.2c-.2 0-.3-.1-.5-.3-1.7 1-3.5 1.7-5.4 2.1-1.4.4-2.8-1.2-2-2.5l1.4-1.7c-.7 0-1.4 0-2 .2-1.3.1-2.7-.7-3.5-1.9l-3 3c-2.7 2.5-6.5.6-7-2.7-.7-.2-1.4-.5-2-1a36 36 0 0 1-13 3c-3.1 0-5-3.7-3.5-6.3a22 22 0 0 1 3.7-4.8 43 43 0 0 1-6.9 1.5c-1.3.2-3-.9-3.6-2-2-4.5-1.8-9.2.5-13.6 0-.2.2-.4.3-.5l.7-1.7c-2.7-3-3-7.2-1.5-10.8-.6-1-.8-2.1-.4-3.2 1.1-3 2.8-5.8 4.9-8.2l-.5-1.3c-1.2-3.6.2-8 3-10.4 1.7-1.6 3.7-2.6 5.8-3.2.9-1.5 2-3 3.4-4.2l.1-.3c2.1-4 6-6.1 10-6.6.2-1.5 1.2-3 2.7-3.5.5-1.3 1-2.6 2-3.8 1.3-1.8 3.5-2.7 5.6-1.5 1.2.7 2.3 1.4 3.3 2.3.4-.2 1-.4 1.6-.4h.1l3.4-.2 4.3-2a11.5 11.5 0 0 1 6.5-2.6 31.1 31.1 0 0 1 10.3-1.6l.1-2v-.3c0-2 1.6-3.7 3.6-4Zm-2.4 168-1 .3.3.7.8.5-.1-1.4Zm-17.8-5.2-.2.4-.2.2h1.5-.2c-.3-.3-.6-.4-1-.6Zm9.6-19.4c3 .2 5.7.6 8.5 2h.2c2.5 1.3 6.5 3.6 6.2 6.8-.1 1-.8 2-1.8 1.8-3-.2-4.6-3-6.5-4.9-2-1.8-4.4-3.7-6.8-5-.3-.1-.2-.7.2-.7ZM325.1 112c-.7 0-.5.7-.1.1l.1-.1Zm39.7-47.8c-7 .2-14 4.3-19.2 8.5a68 68 0 0 0-12 12.6c-.8 2.3-1.6 4.6-2.2 7-.5 1.6-.7 3.2-1 4.7l-.2.5c-.3.6-.5 1.1-.6 1.7a5 5 0 0 0 2.3 1.3c.3 0 .6.2.7.4.8-1.2 1.4-2.5 1.8-3.8a79.8 79.8 0 0 1 19.9-22.5c4.5-3.5 9.5-6.1 14.9-7.9-1.4-1-2.8-1.9-4.4-2.5Z" clip-rule="evenodd"/><path fill="#000" fill-rule="evenodd" d="M427.7 193a13.6 13.6 0 0 1-14.4-4.2 9.5 9.5 0 0 1-2.5-6.3c0-.3 0-.5.2-.7l.6-.3h.7l.5.5.8 1c2.2 2.7 4.2 4.7 7.5 5.4 1.7.4 3.5.2 5-.4a11 11 0 0 0 4.6-3.1c.5-.7 1.2-1 1.8-1 .7 0 1.5.4 2 1a3 3 0 0 1 .9 1.9c0 .7-.2 1.3-.8 2-1.8 2-4.3 3.4-6.9 4.2Zm0-33.3c2.5 1.6 6.5 5.4 3.7 9.3-3.3 3.5-8-.5-10.4-2.3-2.2-1.4-4.7 2.2-2.6 3.8 17 12.6 23.9-10.3 10.6-12.6-1.5-.3-2 1.3-1.4 1.8Zm-24.6-7a3 3 0 0 0-3-.2c-.8.4-2.3 1.7-3.3 3.4a6.8 6.8 0 0 0-1.2 4c0 .3 0 .6-.3.7-.1.2-.3.3-.6.3h-.7a1 1 0 0 1-.6-.6c-.7-2-.4-4.1.4-6 1.1-2.7 3.1-5 4.4-5.7 2.3-1.2 5-1.3 7.2 0 2 1 3.2 2.8 4.4 4.5l.7 1.1c.5.7.6 1.5.4 2-.2.8-.8 1.3-1.5 1.6-.7.3-1.5.4-2.1 0-.6-.2-1.1-.6-1.5-1.4a8 8 0 0 0-2.7-3.7Zm42.8 3a2 2 0 0 1-1.7.2c-.3 0-.7-.3-1-.6a2 2 0 0 1-.5-1 4 4 0 0 0-1.4-2.3 3 3 0 0 0-2.3-.6c-.9.2-1.8.8-2.4 1.5l-.5.7-1 1.4a1 1 0 0 1-.9.2c-1-1-1.1-1.7-1.1-2.4s.3-1.5.8-2.2c1-1.6 3.2-3 4.6-3.2 1.9-.4 3.8 0 5.3 1.1a7.6 7.6 0 0 1 3.1 4.8v1.4a2 2 0 0 1-1 1Zm-38.6-20.3c-1.1 1.1-2.5 1.3-3.9 1.4a18.4 18.4 0 0 0-11.2 5.3l-.9 1-.7.8-.9 1-.2.4a10 10 0 0 1-.5 1l-.4.4h-.4l-.4-.1c-.6-.5-.7-1.3-.7-2.2 0-1.3.5-2.8 1-3.7a19.2 19.2 0 0 1 15.9-10.9 5 5 0 0 1 3.3 1.3c.6.5 1 1.3 1 2.1a3 3 0 0 1-1 2.2Zm41 10.3-.3.2a.7.7 0 0 1-.8 0l-.2-.4c-.7-3.4-2.2-5.9-5.4-7.5a23 23 0 0 0-5-1.7l-1.6-.3c-1.6-.2-3.3-.5-4.4-1.8-.6-.8-.9-1.8-.7-2.8a3 3 0 0 1 1.6-2.2c2.3-1.2 5.2 0 7.6 1l.5.2c2.3 1 4.4 2.3 6.1 4.1 1.4 1.5 2.7 3.7 3.2 5.9a7 7 0 0 1-.7 5.3Z" clip-rule="evenodd"/></svg>