<svg width="24" height="26" fill="none" xmlns="http://www.w3.org/2000/svg"><g clip-path="url(#clip0)"><path d="M11.748.053c-.013.013-.216.04-.452.066-.23.026-.485.072-.57.104-.085.033-.15.046-.15.027 0-.014-.276.052-.604.137-.334.092-.655.177-.708.19-.518.125-1.803.65-2.753 1.135C3.6 3.186 1.488 5.415.676 7.874c-.597 1.809-.55 4.058.111 5.343.393.78 1.095 1.317 1.986 1.527.413.105 1.56.079 2.065-.033 1.823-.42 4.19-1.757 5.442-3.074l.21-.217.176.262c.348.505.695 1.58.806 2.498.08.67.033 2.256-.078 2.57a3.85 3.85 0 0 0-.06.315c-.13.924-.688 2.53-1.022 2.976-.51.675-.72 1.37-.701 2.268.026.74.262 1.265.82 1.816.36.354.995.741 1.402.84.131.032.157.078.15.281-.006.131.02.282.053.321.079.105.538.112 1.062.014.217-.04.544-.08.721-.086.321-.006.328-.006.348.203.013.145.066.223.15.25.158.052.932-.007 1.22-.092.217-.066.695-.053 1.475.026.439.046.511.04.55-.053.073-.19-.11-.583-.425-.904-.302-.315-.4-.354-.794-.321-.111.006 0-.086.355-.29.282-.163.61-.373.727-.458l.217-.164.36.19c.452.25.938.308 1.03.131.052-.098.032-.144-.086-.242-.177-.138-.504-.564-.504-.65 0-.058.524-.386.55-.34.007.013.079.164.158.334.19.413.669.918 1.029 1.088.557.263 1.016.289 1.016.053 0-.04-.099-.177-.223-.308-.334-.334-.675-.95-.767-1.35-.046-.197-.066-.368-.046-.388.02-.02.485-.19 1.042-.386 1.194-.413 1.489-.531 1.94-.787.4-.223.565-.485.467-.767-.06-.177-.44-.603-.794-.898-.256-.21-1.016-.597-1.272-.642-.21-.04-.216-.053-.223-.361a4.6 4.6 0 0 0-.026-.387c-.006-.04-.02-.118-.026-.183-.014-.21-.17-.361-.315-.315-.118.04-.268.288-.328.53-.058.257-.21.709-.216.656a8.268 8.268 0 0 1-.033-.36c-.091-.983-.53-.826-.767.276l-.079.367-.295.052c-.832.131-2.039.131-2.497-.007-.197-.059-.511-.144-.695-.196a7.707 7.707 0 0 0-1.547-.184c-.138 0-.25-.02-.25-.045 0-.02.303-.276.663-.552 3.376-2.595 5.684-5.545 6.26-8.004.06-.255.119-.518.138-.59.02-.072.04-.511.046-.977.04-2.393-.701-4.431-2.163-5.926-1.305-1.33-3.114-2.17-5.238-2.432-.485-.06-2.157-.092-2.203-.04v.001zm10.365 19.51c.079.138.026.301-.125.38-.288.15-.59-.295-.32-.479a.299.299 0 0 1 .445.099z" fill="#3D2D43"/></g><defs><clipPath id="clip0"><path fill="#fff" d="M0 0H23.785V26H0z"/></clipPath></defs></svg>