<svg width="282" height="26" fill="none" xmlns="http://www.w3.org/2000/svg"><g clip-path="url(#clip0)"><path d="M14.57.649v2.559a.263.263 0 0 1-.275.282H3.275v5.228h9.097a.263.263 0 0 1 .282.275v2.56a.268.268 0 0 1-.282.28H3.306v7.714a.263.263 0 0 1-.276.282H.275A.264.264 0 0 1 0 19.547V.65A.263.263 0 0 1 .275.373h14.02a.263.263 0 0 1 .275.276zm22.413 19.18h-3.03a.307.307 0 0 1-.319-.25A74.827 74.827 0 0 0 32.19 14.6h-9.305a67.904 67.904 0 0 0-1.433 4.977.306.306 0 0 1-.318.251h-2.92c-.196 0-.306-.11-.251-.306a129.018 129.018 0 0 1 7.12-18.8.538.538 0 0 1 .545-.362h3.948a.527.527 0 0 1 .539.361 126.428 126.428 0 0 1 7.12 18.801c.055.196-.055.306-.251.306zm-5.822-8.234a115.342 115.342 0 0 0-3.3-8.173h-.649a115.391 115.391 0 0 0-3.312 8.173h7.26zm10.811-1.335c0-6.036 3.98-10.26 9.654-10.26h.417a8.65 8.65 0 0 1 7.769 4.42c.098.171.073.306-.092.392L57.27 6.036a.344.344 0 0 1-.49-.122 5.167 5.167 0 0 0-4.848-2.724h-.423c-3.569 0-6.03 2.834-6.03 6.954 0 4.12 2.449 6.893 6.03 6.893h.423c2.332 0 3.673-.79 4.738-2.001a.355.355 0 0 1 .46-.098l2.515 1.224a.227.227 0 0 1 .141.196.385.385 0 0 1-.086.208c-1.542 2.253-4.322 3.673-7.713 3.673h-.417c-5.785-.049-9.599-4.01-9.599-9.979zm39.983 6.735v2.552a.27.27 0 0 1-.282.282h-14.6a.264.264 0 0 1-.276-.282V.65a.264.264 0 0 1 .275-.276h14.35a.264.264 0 0 1 .282.276v2.559a.27.27 0 0 1-.282.282H70.133v5.062h9.183a.263.263 0 0 1 .276.276v2.528a.262.262 0 0 1-.276.282h-9.183v5.087h11.57a.27.27 0 0 1 .252.27zm25.137-2.504c0 3.404-2.614 5.338-7.23 5.338h-9.569a.264.264 0 0 1-.276-.282V.65a.264.264 0 0 1 .276-.276h8.718c4.493 0 6.942 1.782 6.942 5.033 0 2.142-1.084 3.544-3.281 4.2 3.085.642 4.42 2.491 4.42 4.885zm-8.149-11.1h-5.62v5.216h5.62c2.516 0 3.674-.82 3.674-2.614 0-1.793-1.158-2.601-3.674-2.601zm4.757 10.806c0-1.806-1.224-2.627-3.826-2.627h-6.55V16.8h6.55c2.669 0 3.826-.778 3.826-2.602zm9.22-4.102C112.92 4.225 116.807 0 122.929 0h.416c6.122 0 10.01 4.224 10.01 10.095s-3.894 10.095-10.01 10.095h-.416c-6.122 0-10.009-4.236-10.009-10.095zm10.407 6.924c3.992 0 6.508-2.736 6.508-6.924 0-4.187-2.516-6.924-6.508-6.924h-.416c-3.992 0-6.508 2.737-6.508 6.924 0 4.188 2.516 6.924 6.508 6.924h.416zm15.672-6.924c0-5.87 3.894-10.095 10.016-10.095h.416c6.122 0 10.01 4.224 10.01 10.095s-3.894 10.095-10.01 10.095h-.416c-6.122 0-10.016-4.236-10.016-10.095zm10.408 6.924c3.991 0 6.507-2.736 6.507-6.924 0-4.187-2.516-6.924-6.507-6.924h-.417c-3.991 0-6.507 2.737-6.507 6.924 0 4.188 2.516 6.924 6.507 6.924h.417zm34.019 2.81h-3.587a.518.518 0 0 1-.484-.239 76.285 76.285 0 0 0-8.026-8.075h-1.61v8.032a.268.268 0 0 1-.281.282h-2.755a.265.265 0 0 1-.276-.282V.65a.281.281 0 0 1 .018-.108.258.258 0 0 1 .15-.15.267.267 0 0 1 .108-.018h2.755a.262.262 0 0 1 .281.276v7.665h1.641a60.18 60.18 0 0 0 7.255-7.745.454.454 0 0 1 .416-.208h3.398c.165 0 .244.086.244.196a.329.329 0 0 1-.097.208 69.027 69.027 0 0 1-8.688 9.067 84.068 84.068 0 0 1 9.692 9.679c.153.153.067.318-.154.318zm11.504 0V.361h7.254a10.133 10.133 0 0 1 5.149 1.225 8.497 8.497 0 0 1 3.318 3.452 10.635 10.635 0 0 1 1.163 5.033 10.635 10.635 0 0 1-1.163 5.032 8.534 8.534 0 0 1-3.318 3.453 10.134 10.134 0 0 1-5.149 1.224l-7.254.05zm7.242-17.276h-4.898V17.63h4.898a7.536 7.536 0 0 0 3.869-.942 6.257 6.257 0 0 0 2.486-2.633 8.578 8.578 0 0 0 .869-3.967 8.54 8.54 0 0 0-.869-3.967 6.279 6.279 0 0 0-2.486-2.626 7.536 7.536 0 0 0-3.869-.943zm19.859 17.57a6.515 6.515 0 0 1-3.465-.906 6.08 6.08 0 0 1-2.308-2.528 8.15 8.15 0 0 1-.832-3.796 8.273 8.273 0 0 1 .82-3.747 6.322 6.322 0 0 1 2.29-2.559 6.25 6.25 0 0 1 3.422-.906h.263a5.615 5.615 0 0 1 3.196.912 5.924 5.924 0 0 1 2.106 2.565 9.412 9.412 0 0 1 .741 3.888v.753h-10.591a5.073 5.073 0 0 0 1.395 3.153 4.153 4.153 0 0 0 3.061 1.169h.245a4.794 4.794 0 0 0 2.069-.447 4.644 4.644 0 0 0 1.604-1.224l1.421 1.432a6.27 6.27 0 0 1-2.241 1.641 7.015 7.015 0 0 1-2.902.612l-.294-.012zm-.14-12.452a3.777 3.777 0 0 0-2.847 1.17 5.226 5.226 0 0 0-1.371 3.14h8.338a5.124 5.124 0 0 0-1.102-3.061 3.39 3.39 0 0 0-2.786-1.225l-.232-.024zm15.372 12.452c-2.759 0-4.761-.904-6.006-2.712l1.531-1.335c.979 1.408 2.467 2.112 4.463 2.112h.251a4.499 4.499 0 0 0 2.381-.532 1.788 1.788 0 0 0 .85-1.351 1.784 1.784 0 0 0-.574-1.49 4.29 4.29 0 0 0-1.953-.777l-2.529-.533c-2.652-.539-3.977-1.775-3.973-3.71a3.6 3.6 0 0 1 1.476-3 6.262 6.262 0 0 1 3.899-1.132h.276c2.359 0 4.12.857 5.283 2.571l-1.53 1.224a4.207 4.207 0 0 0-1.623-1.426 4.897 4.897 0 0 0-2.155-.447h-.251a4.434 4.434 0 0 0-2.314.533 1.659 1.659 0 0 0-.881 1.481 1.435 1.435 0 0 0 .538 1.176c.55.371 1.179.61 1.837.698l2.736.575a5.917 5.917 0 0 1 2.884 1.347 3.384 3.384 0 0 1 1.035 2.614 3.597 3.597 0 0 1-1.439 3.006 6.122 6.122 0 0 1-3.949 1.132l-.263-.024zm10.738-17.025a1.507 1.507 0 0 1-1.126-.435 1.531 1.531 0 0 1-.417-1.108 1.55 1.55 0 0 1 .417-1.114 1.694 1.694 0 0 1 2.252 0 1.55 1.55 0 0 1 .417 1.114 1.516 1.516 0 0 1-.417 1.108 1.49 1.49 0 0 1-1.126.435zm-1.096 16.731V5.987h2.198v13.83l-2.198.012zm12.06-4.236a7.638 7.638 0 0 1-1.959-.24c-.39.36-.632.85-.679 1.378 0 .817.569 1.225 1.708 1.225h3.281c1.657 0 2.894.304 3.71.912a3.057 3.057 0 0 1 1.225 2.62 3.674 3.674 0 0 1-1.99 3.337c-1.322.78-3.147 1.167-5.473 1.163a9.72 9.72 0 0 1-4.506-.876 2.798 2.798 0 0 1-1.665-2.608 2.866 2.866 0 0 1 .728-1.953 5.821 5.821 0 0 1 2.021-1.401 2.195 2.195 0 0 1-.876-1.837c.056-.96.479-1.86 1.182-2.516a4.322 4.322 0 0 1-1.708-1.757 5.084 5.084 0 0 1-.57-2.394 4.666 4.666 0 0 1 1.488-3.587 5.773 5.773 0 0 1 4.083-1.378h.251a6.392 6.392 0 0 1 3.294.808 2.912 2.912 0 0 1 2.834-1.53c.357.003.711.042 1.06.116v1.837a3.479 3.479 0 0 0-.655-.117h-.49a2.264 2.264 0 0 0-1.708.57 4.71 4.71 0 0 1 1.224 3.324 4.645 4.645 0 0 1-1.475 3.57 5.738 5.738 0 0 1-4.084 1.377l-.251-.043zm-4.193 6.483c0 1.404 1.408 2.104 4.224 2.1 1.3.07 2.598-.167 3.789-.692a2.099 2.099 0 0 0 1.311-1.88c0-1.195-1.006-1.793-3.019-1.793h-3.863a4.463 4.463 0 0 0-1.787.9 1.795 1.795 0 0 0-.655 1.365zm4.206-8.265h.226a3.538 3.538 0 0 0 2.547-.857 3.357 3.357 0 0 0 0-4.573 3.539 3.539 0 0 0-2.547-.851h-.226a3.55 3.55 0 0 0-2.541.851 3.357 3.357 0 0 0 0 4.573 3.552 3.552 0 0 0 2.541.833v.024zm10.829 6.006V5.987h2.192v2.62a6.031 6.031 0 0 1 1.977-2.142 4.986 4.986 0 0 1 2.792-.79h.288a4.449 4.449 0 0 1 3.642 1.567c.862 1.041 1.292 2.53 1.292 4.47v8.105h-2.192v-7.781a5.416 5.416 0 0 0-.795-3.226 2.868 2.868 0 0 0-2.486-1.084h-.263a3.772 3.772 0 0 0-2.633.998 5.944 5.944 0 0 0-1.61 2.516v8.57l-2.204.007z" fill="#006B4E"/></g><defs><clipPath id="clip0"><path fill="#fff" d="M0 0H281.99V26H0z"/></clipPath></defs></svg>