<svg width="148" height="26" fill="none"
  xmlns="http://www.w3.org/2000/svg">
  <path d="M.608 1.536h5.424l2.304 9.072c.176.688.432 1.928.768 3.72h.12c.288-1.872.512-3.112.672-3.72L12.2 1.536h5.184V18h-3.48V7.512c0-.464.048-1.344.144-2.64h-.12l-.504 1.944L10.592 18H7.28L4.448 6.816l-.504-1.944h-.12c.096 1.344.144 2.224.144 2.64V18H.608V1.536zm25.704 16.752c-2.16 0-3.768-.536-4.824-1.608s-1.584-2.736-1.584-4.992.528-3.92 1.584-4.992 2.664-1.608 4.824-1.608c2.16 0 3.768.536 4.824 1.608 1.072 1.072 1.608 2.736 1.608 4.992s-.536 3.92-1.608 4.992c-1.056 1.072-2.664 1.608-4.824 1.608zm0-2.688c1.072 0 1.848-.304 2.328-.912.48-.624.72-1.56.72-2.808v-.384c0-1.248-.24-2.176-.72-2.784-.48-.624-1.256-.936-2.328-.936-1.072 0-1.848.312-2.328.936-.464.608-.696 1.536-.696 2.784v.384c0 1.248.232 2.184.696 2.808.48.608 1.256.912 2.328.912zM40.6 18.288c-2.016 0-3.528-.536-4.536-1.608-.992-1.072-1.488-2.736-1.488-4.992 0-2.24.496-3.896 1.488-4.968 1.008-1.088 2.52-1.632 4.536-1.632 1.68 0 3.016.432 4.008 1.296 1.008.848 1.512 2.096 1.512 3.744h-3.312c0-.768-.2-1.36-.6-1.776-.4-.416-.96-.624-1.68-.624-.896 0-1.56.32-1.992.96-.416.624-.624 1.56-.624 2.808v.384c0 1.248.216 2.192.648 2.832.448.624 1.16.936 2.136.936.688 0 1.232-.208 1.632-.624.416-.432.624-1.024.624-1.776h3.168c0 1.648-.496 2.904-1.488 3.768-.992.848-2.336 1.272-4.032 1.272zM48.704.648h3.288v9.744l4.176-5.016h3.792l-4.176 4.848L60.2 18h-3.768l-2.76-5.352-1.68 1.632V18h-3.288V.648zm17.44 17.64c-1.296 0-2.32-.352-3.072-1.056-.736-.704-1.104-1.832-1.104-3.384V5.376h3.288v7.776c0 .784.184 1.352.552 1.704.368.352.912.528 1.632.528.736 0 1.344-.256 1.824-.768.496-.528.744-1.176.744-1.944V5.376h3.288V18h-2.808l-.24-1.656h-.168c-1.024 1.296-2.336 1.944-3.936 1.944zM76.616 1.536h7.848c1.84 0 3.224.472 4.152 1.416.928.928 1.392 2.248 1.392 3.96 0 1.712-.488 3.048-1.464 4.008-.96.944-2.4 1.416-4.32 1.416h-4.128V18h-3.48V1.536zm7.536 7.848c.752 0 1.328-.216 1.728-.648.4-.432.6-1.04.6-1.824 0-.768-.2-1.36-.6-1.776-.4-.432-.976-.648-1.728-.648h-4.056v4.896h4.056zM92.72.648h3.288V6.84h.168c.96-1.168 2.192-1.752 3.696-1.752 1.296 0 2.312.352 3.048 1.056.752.704 1.128 1.832 1.128 3.384V18h-3.288v-7.776c0-.784-.184-1.352-.552-1.704-.368-.352-.912-.528-1.632-.528-.736 0-1.352.264-1.848.792-.48.512-.72 1.152-.72 1.92V18H92.72V.648zm20.288 17.64c-2.16 0-3.768-.536-4.824-1.608s-1.584-2.736-1.584-4.992.528-3.92 1.584-4.992 2.664-1.608 4.824-1.608c2.16 0 3.768.536 4.824 1.608 1.072 1.072 1.608 2.736 1.608 4.992s-.536 3.92-1.608 4.992c-1.056 1.072-2.664 1.608-4.824 1.608zm0-2.688c1.072 0 1.848-.304 2.328-.912.48-.624.72-1.56.72-2.808v-.384c0-1.248-.24-2.176-.72-2.784-.48-.624-1.256-.936-2.328-.936-1.072 0-1.848.312-2.328.936-.464.608-.696 1.536-.696 2.784v.384c0 1.248.232 2.184.696 2.808.48.608 1.256.912 2.328.912zm9.055-10.224h2.808l.24 1.656h.168c1.024-1.296 2.336-1.944 3.936-1.944 1.296 0 2.312.352 3.048 1.056.752.704 1.128 1.832 1.128 3.384V18h-3.288v-7.776c0-.784-.184-1.352-.552-1.704-.368-.352-.912-.528-1.632-.528-.736 0-1.352.264-1.848.792-.48.512-.72 1.152-.72 1.92V18h-3.288V5.376zm19.88 12.912c-2.032 0-3.552-.536-4.56-1.608-.992-1.072-1.488-2.736-1.488-4.992s.496-3.92 1.488-4.992c1.008-1.072 2.528-1.608 4.56-1.608 1.872 0 3.272.544 4.2 1.632.928 1.072 1.392 2.728 1.392 4.968v.768h-8.304c.032 1.12.256 1.952.672 2.496.416.528 1.112.792 2.088.792.688 0 1.24-.192 1.656-.576.432-.384.648-.928.648-1.632h3.24c0 1.584-.512 2.776-1.536 3.576-1.024.784-2.376 1.176-4.056 1.176zm2.184-8.016c0-1.744-.728-2.616-2.184-2.616-.832 0-1.464.216-1.896.648-.416.432-.672 1.088-.768 1.968h4.848z" fill="#000"/>
</svg>