<svg width="135" height="26" fill="none" xmlns="http://www.w3.org/2000/svg"><g clip-path="url(#clip0)"><path d="M53.224 23.587h-3.841V2.413h3.84v21.174zm16.857 0h-3.739v-1.564a5.233 5.233 0 0 1-4.282 1.938c-3.942 0-6.9-3.229-6.9-7.511 0-4.283 2.992-7.511 6.9-7.511a5.234 5.234 0 0 1 4.282 1.97V9.347h3.739v14.24zM59.069 16.45c0 2.175 1.428 3.942 3.67 3.942 2.244 0 3.671-1.665 3.671-3.942s-1.495-3.943-3.67-3.943-3.637 1.768-3.637 3.943h-.034zM89.216 4.656a2.447 2.447 0 1 1-4.895 0 2.447 2.447 0 0 1 4.895 0zm-.51 18.93H84.83V9.313h3.875v14.275zM47.446 6.05a5.642 5.642 0 0 0-2.72-.476c-1.087.136-1.665.68-1.665 2.005v1.733h4.419v3.433H43.06v10.876h-3.84V12.745H36.57V9.346h2.65v-1.8c0-3.366 1.768-5.54 5.099-5.54a7.953 7.953 0 0 1 3.16.611l-.033 3.433zm32.457 14.342c-1.19 0-2.141-.646-2.141-2.413v-5.234h5.166V9.346h-5.166V5.098h-3.84v4.248h-1.938v3.4h1.938v5.505c0 3.704 1.8 5.71 5.335 5.71a7.783 7.783 0 0 0 3.671-.85l-1.461-3.093a4.18 4.18 0 0 1-1.564.374zm38.677-3.942c0 4.282-3.296 7.51-7.715 7.51-4.418 0-7.715-3.194-7.715-7.51 0-4.317 3.263-7.511 7.715-7.511 4.453 0 7.715 3.228 7.715 7.51zm-11.521 0c0 2.31 1.631 3.942 3.772 3.942s3.807-1.631 3.807-3.942-1.632-3.943-3.807-3.943-3.738 1.632-3.738 3.943h-.034zm26.951-1.938v9.075h-3.874v-7.851c0-2.073-1.02-3.195-2.787-3.195s-3.025 1.088-3.025 3.229v7.817h-3.806V9.312h3.738v1.666c1.02-1.53 2.583-2.073 4.181-2.073 3.262.034 5.573 2.31 5.573 5.607z" fill="#000"/><path d="M101.281 18.93a4.214 4.214 0 0 1-2.787 1.428h-.306l-.612-.068a3.4 3.4 0 0 1-2.514-1.903 4.485 4.485 0 0 1-.408-1.971 4.42 4.42 0 0 1 .441-2.006 3.434 3.434 0 0 1 2.55-1.869h.815a3.98 3.98 0 0 1 2.821 1.428l1.869-3.263a6.76 6.76 0 0 0-2.753-1.462 7.948 7.948 0 0 0-2.073-.271 8.564 8.564 0 0 0-2.549.373 7.103 7.103 0 0 0-2.719 1.564 7.443 7.443 0 0 0-2.31 5.574 7.444 7.444 0 0 0 2.276 5.54 7.104 7.104 0 0 0 2.72 1.563c.845.27 1.728.408 2.616.408a8.02 8.02 0 0 0 2.107-.272 6.79 6.79 0 0 0 2.753-1.496l-1.937-3.296z" fill="#000"/><path d="M15.736 9.007H9.143l-2.074-3.57h10.74L20.936 0H3.195A3.16 3.16 0 0 0 .442 1.597a3.16 3.16 0 0 0 0 3.195l11.317 19.61a3.195 3.195 0 0 0 5.506 0l.374-.645-5.2-9.04 3.297-5.71z" fill="#4AD295"/><path d="M28.617 1.597A3.16 3.16 0 0 0 25.864 0h-.782l-8.496 14.716 3.126 5.438 8.905-15.396a3.16 3.16 0 0 0 0-3.16z" fill="#4AD295"/></g><defs><clipPath id="clip0"><path fill="#fff" d="M0 0H134.01V26H0z"/></clipPath></defs></svg>