<svg width="135" height="26" fill="none" xmlns="http://www.w3.org/2000/svg">
  <g clip-path="url(#a)">
    <path d="M53.2 23.6h-3.8V2.4h3.8v21.2zm16.9 0h-3.8V22a5.2 5.2 0 0 1-4.2 2c-4 0-7-3.3-7-7.6 0-4.2 3-7.5 7-7.5a5.2 5.2 0 0 1 4.2 2V9.3h3.8v14.3zm-11-7.2c0 2.2 1.4 4 3.6 4 2.3 0 3.7-1.7 3.7-4s-1.5-3.9-3.7-3.9-3.6 1.8-3.6 4zM89.2 4.8a2.4 2.4 0 1 1-4.9 0 2.4 2.4 0 0 1 5 0zm-.5 18.9h-3.9V9.3h4v14.3zM47.4 6a5.6 5.6 0 0 0-2.7-.4c-1 .1-1.6.7-1.6 2v1.7h4.4v3.4H43v11h-3.9v-11h-2.6V9.3h2.6V7.5C39.2 4.2 41 2 44.3 2a8 8 0 0 1 3.2.6V6zM80 20.5c-1.2 0-2.1-.7-2.1-2.4v-5.3H83V9.3h-5.1V5.1H74v4.2h-2v3.4h2v5.6c0 3.7 1.8 5.7 5.4 5.7a7.8 7.8 0 0 0 3.6-.9l-1.4-3a4.2 4.2 0 0 1-1.6.3zm38.7-4c0 4.3-3.3 7.6-7.7 7.6a7.4 7.4 0 0 1-7.8-7.5c0-4.4 3.3-7.6 7.8-7.6 4.4 0 7.7 3.3 7.7 7.5zm-11.5 0c0 2.4 1.6 4 3.7 4s3.8-1.6 3.8-4-1.6-3.9-3.8-3.9-3.7 1.6-3.7 4zm27-1.9v9h-4v-7.8c0-2-1-3.2-2.8-3.2s-3 1.1-3 3.3v7.8h-3.8V9.3h3.8V11c1-1.6 2.5-2.1 4.1-2.1 3.3 0 5.6 2.3 5.6 5.6z" fill="#000"/>
    <path d="M101.3 19a4.2 4.2 0 0 1-2.8 1.4h-.3l-.6-.1a3.4 3.4 0 0 1-2.5-2 4.5 4.5 0 0 1-.4-1.9 4.4 4.4 0 0 1 .4-2 3.4 3.4 0 0 1 2.5-1.9h.9a4 4 0 0 1 2.8 1.5l1.9-3.3a6.8 6.8 0 0 0-2.8-1.5 8 8 0 0 0-2-.2 8.6 8.6 0 0 0-2.6.3A7.1 7.1 0 0 0 93 11a7.4 7.4 0 0 0-2.4 5.6A7.4 7.4 0 0 0 93 22a7.1 7.1 0 0 0 2.7 1.6c.9.3 1.8.4 2.7.4a8 8 0 0 0 2-.3 6.8 6.8 0 0 0 2.8-1.5l-2-3.3z" fill="#000"/>
    <path d="M15.7 9H9.1l-2-3.6h10.7L21 0H3.2A3.2 3.2 0 0 0 .4 1.6a3.2 3.2 0 0 0 0 3.2l11.4 19.6a3.2 3.2 0 0 0 5.5 0l.3-.6-5.2-9L15.7 9z" fill="#4AD295"/>
    <path d="M28.6 1.6A3.2 3.2 0 0 0 26 0h-1l-8.5 14.7 3.1 5.5 9-15.4a3.2 3.2 0 0 0 0-3.2z" fill="#4AD295"/>
  </g>
  <defs>
    <clipPath id="a">
      <path fill="#fff" d="M0 0h134v26H0z"/>
    </clipPath>
  </defs>
</svg>
