<svg width="101" height="26" fill="none" xmlns="http://www.w3.org/2000/svg"><path d="M13 0H0v26h13V0zm6.5 13a6.5 6.5 0 1 0 0-13 6.5 6.5 0 0 0 0 13zm0 13a6.5 6.5 0 1 0 0-13 6.5 6.5 0 0 0 0 13z" fill="#1FB141"/><path d="M38.823 21h-3.222V5.36h3.222V21zm7.627-2.288c.573 0 1.039-.158 1.397-.473.358-.315.544-.734.558-1.257h2.911a4.01 4.01 0 0 1-.644 2.17 4.297 4.297 0 0 1-1.74 1.526c-.73.358-1.54.537-2.428.537-1.662 0-2.972-.526-3.932-1.58-.96-1.06-1.44-2.52-1.44-4.382v-.204c0-1.79.477-3.22 1.43-4.286.952-1.067 2.259-1.6 3.92-1.6 1.454 0 2.618.414 3.492 1.245.88.824 1.328 1.923 1.342 3.298h-2.91c-.015-.601-.201-1.088-.56-1.46-.357-.38-.83-.57-1.417-.57-.724 0-1.271.265-1.644.795-.365.522-.548 1.375-.548 2.556v.323c0 1.196.183 2.055.548 2.578.365.523.92.784 1.665.784zm6.155-3.63c0-1.154.223-2.182.667-3.084.444-.902 1.08-1.6 1.912-2.095.838-.494 1.808-.74 2.91-.74 1.57 0 2.847.479 3.836 1.439.995.96 1.55 2.263 1.665 3.91l.021.795c0 1.783-.498 3.215-1.493 4.296-.995 1.075-2.331 1.612-4.007 1.612-1.676 0-3.015-.537-4.017-1.611-.996-1.075-1.493-2.536-1.493-4.383v-.14zm3.105.225c0 1.103.208 1.948.623 2.535.415.58 1.01.87 1.783.87.752 0 1.34-.287 1.762-.86.422-.58.634-1.503.634-2.77 0-1.082-.212-1.92-.634-2.515-.423-.594-1.017-.891-1.783-.891-.76 0-1.347.297-1.762.891-.415.588-.623 1.5-.623 2.74zm12.676-5.93l.096 1.343c.831-1.039 1.945-1.558 3.341-1.558 1.232 0 2.149.362 2.75 1.085.602.723.91 1.805.924 3.244V21h-3.104v-7.434c0-.658-.144-1.135-.43-1.428-.287-.301-.763-.451-1.429-.451-.874 0-1.529.372-1.966 1.117V21h-3.104V9.377h2.922zm15.77 8.411c0-.38-.19-.677-.57-.892-.373-.222-.974-.419-1.805-.59-2.764-.58-4.146-1.755-4.146-3.524 0-1.031.426-1.89 1.278-2.578.86-.695 1.98-1.042 3.362-1.042 1.476 0 2.654.347 3.535 1.042.888.695 1.332 1.597 1.332 2.707h-3.105c0-.444-.143-.81-.43-1.096-.286-.293-.734-.44-1.342-.44-.523 0-.928.118-1.214.354-.287.237-.43.538-.43.903 0 .344.161.623.484.838.329.207.88.39 1.654.548.773.15 1.425.322 1.955.515 1.64.602 2.46 1.644 2.46 3.126 0 1.06-.455 1.92-1.364 2.578-.91.652-2.084.978-3.524.978-.974 0-1.84-.172-2.6-.516-.751-.35-1.342-.827-1.772-1.429-.43-.608-.645-1.264-.645-1.965h2.944c.029.551.233.974.612 1.267.38.294.888.44 1.526.44.594 0 1.042-.11 1.342-.332.308-.23.462-.527.462-.892zm15.092-8.271c0 .759-.19 1.432-.57 2.02a4.098 4.098 0 0 1-1.568 1.406c.76.366 1.361.87 1.805 1.515.444.637.666 1.39.666 2.256 0 1.39-.473 2.489-1.418 3.298-.945.802-2.23 1.203-3.856 1.203S91.392 20.81 90.439 20c-.952-.81-1.428-1.905-1.428-3.287 0-.867.222-1.622.666-2.267a4.453 4.453 0 0 1 1.794-1.504 4.099 4.099 0 0 1-1.569-1.407c-.372-.587-.558-1.26-.558-2.02 0-1.331.444-2.391 1.332-3.18.888-.794 2.094-1.191 3.62-1.191 1.518 0 2.721.393 3.61 1.181.894.78 1.342 1.844 1.342 3.19zm-2.782 6.971c0-.68-.197-1.224-.591-1.633-.394-.408-.924-.612-1.59-.612-.659 0-1.185.204-1.579.612-.394.402-.59.946-.59 1.633 0 .666.193 1.203.58 1.612.386.408.923.612 1.61.612.674 0 1.2-.197 1.58-.59.386-.395.58-.94.58-1.634zm-.322-6.821c0-.609-.162-1.096-.484-1.461-.322-.372-.777-.559-1.364-.559-.58 0-1.031.18-1.354.538-.322.358-.483.852-.483 1.482 0 .623.161 1.124.483 1.504.323.38.777.57 1.365.57.587 0 1.038-.19 1.353-.57.322-.38.484-.881.484-1.504z" fill="#000"/></svg>