<svg width="121" height="26" fill="none"
  xmlns="http://www.w3.org/2000/svg">
  <path d="M13.17 3.97H8.379V17H5.156V3.97H.43V1.36h12.74v2.61zM19.744 17a3.45 3.45 0 0 1-.311-1.042c-.752.838-1.73 1.257-2.933 1.257-1.139 0-2.084-.33-2.836-.988-.745-.66-1.117-1.49-1.117-2.493 0-1.231.455-2.177 1.364-2.836.917-.658 2.238-.991 3.964-.999h1.429v-.666c0-.537-.14-.966-.42-1.289-.271-.322-.705-.483-1.299-.483-.523 0-.935.125-1.235.376-.294.25-.44.594-.44 1.031h-3.105c0-.673.207-1.296.623-1.869.415-.573 1.002-1.02 1.761-1.343.76-.33 1.612-.494 2.557-.494 1.432 0 2.568.362 3.405 1.085.845.716 1.268 1.726 1.268 3.03v5.038c.007 1.102.161 1.937.462 2.502V17h-3.137zm-2.567-2.16c.458 0 .88-.1 1.267-.3.387-.208.674-.483.86-.827v-1.998h-1.16c-1.554 0-2.382.537-2.482 1.611l-.01.183c0 .386.135.705.408.956.272.25.644.376 1.117.376zm18.1-3.544c0 1.862-.397 3.316-1.192 4.361-.795 1.039-1.905 1.558-3.33 1.558-1.26 0-2.267-.484-3.019-1.45L27.596 17h-2.792V.5h3.104v5.919c.716-.838 1.658-1.257 2.825-1.257 1.418 0 2.528.523 3.33 1.568.81 1.039 1.214 2.503 1.214 4.394v.172zm-3.104-.226c0-1.174-.186-2.03-.559-2.567-.372-.544-.927-.816-1.665-.816-.988 0-1.668.404-2.04 1.213v4.587c.379.817 1.066 1.225 2.062 1.225 1.002 0 1.661-.494 1.976-1.482.15-.473.226-1.193.226-2.16zM40.477 17H37.36V.5h3.116V17zm7.917.215c-1.705 0-3.094-.523-4.168-1.569-1.068-1.045-1.601-2.438-1.601-4.178v-.301c0-1.167.226-2.21.677-3.126.45-.924 1.088-1.633 1.912-2.127.83-.501 1.776-.752 2.836-.752 1.59 0 2.84.501 3.749 1.504.916 1.003 1.375 2.424 1.375 4.265v1.267h-7.401c.1.76.4 1.368.902 1.826.508.459 1.15.688 1.923.688 1.196 0 2.13-.433 2.803-1.3l1.526 1.708c-.466.659-1.096 1.175-1.89 1.547-.796.365-1.677.548-2.643.548zm-.355-9.54c-.616 0-1.117.208-1.504.624-.38.415-.623 1.01-.73 1.783h4.318v-.247c-.014-.688-.2-1.217-.558-1.59-.359-.38-.867-.57-1.526-.57zm13.438.613a8.432 8.432 0 0 0-1.117-.086c-1.174 0-1.944.398-2.31 1.193V17h-3.104V5.377h2.933l.086 1.386c.623-1.067 1.486-1.6 2.589-1.6.343 0 .666.046.966.139l-.043 2.986zM72.091 17h-3.223V1.36h3.223V17zm7.627-2.288c.573 0 1.038-.158 1.396-.473.358-.315.544-.734.559-1.257h2.911a4.01 4.01 0 0 1-.645 2.17 4.298 4.298 0 0 1-1.74 1.526c-.73.358-1.54.537-2.427.537-1.662 0-2.973-.526-3.932-1.58-.96-1.06-1.44-2.52-1.44-4.382v-.204c0-1.79.477-3.22 1.43-4.286.952-1.067 2.258-1.6 3.92-1.6 1.454 0 2.618.414 3.491 1.245.881.824 1.329 1.923 1.343 3.298h-2.911c-.014-.602-.2-1.088-.559-1.46-.358-.38-.83-.57-1.418-.57-.723 0-1.27.265-1.643.795-.365.522-.548 1.375-.548 2.556v.323c0 1.196.183 2.055.548 2.578.365.522.92.784 1.665.784zm6.155-3.63c0-1.154.222-2.182.666-3.084.444-.902 1.081-1.6 1.912-2.095.838-.494 1.808-.74 2.911-.74 1.569 0 2.847.479 3.835 1.439.996.96 1.55 2.263 1.665 3.91l.022.795c0 1.783-.498 3.215-1.493 4.296-.996 1.075-2.331 1.612-4.007 1.612-1.676 0-3.015-.537-4.018-1.611-.995-1.075-1.493-2.536-1.493-4.383v-.14zm3.105.225c0 1.102.207 1.948.623 2.535.415.58 1.01.87 1.783.87.752 0 1.339-.287 1.761-.86.423-.58.634-1.503.634-2.77 0-1.082-.211-1.92-.633-2.515-.423-.594-1.017-.891-1.784-.891-.759 0-1.346.297-1.761.891-.416.588-.623 1.5-.623 2.74zm12.675-5.93l.097 1.343c.831-1.039 1.944-1.558 3.341-1.558 1.232 0 2.148.362 2.75 1.085.601.723.909 1.805.924 3.244V17h-3.105V9.566c0-.658-.143-1.135-.43-1.428-.286-.301-.762-.451-1.428-.451-.874 0-1.529.372-1.966 1.117V17h-3.105V5.377h2.922zm15.77 8.411c0-.38-.19-.677-.569-.892-.373-.222-.974-.419-1.805-.59-2.764-.58-4.147-1.755-4.147-3.524 0-1.031.426-1.89 1.279-2.578.859-.695 1.98-1.042 3.362-1.042 1.475 0 2.653.347 3.534 1.042.888.695 1.332 1.597 1.332 2.707h-3.104c0-.444-.144-.81-.43-1.096-.286-.293-.734-.44-1.343-.44-.523 0-.927.118-1.214.354a1.12 1.12 0 0 0-.429.903c0 .344.161.623.483.838.329.207.881.39 1.654.548.774.15 1.425.322 1.955.515 1.64.602 2.46 1.644 2.46 3.126 0 1.06-.454 1.92-1.364 2.578-.909.652-2.084.978-3.523.978-.974 0-1.841-.172-2.6-.516-.752-.35-1.343-.827-1.772-1.429-.43-.608-.645-1.263-.645-1.965h2.943c.029.551.233.974.613 1.267.379.294.888.44 1.525.44.595 0 1.042-.11 1.343-.332.308-.23.462-.527.462-.892z" fill="#000"/>
</svg>