<svg width="113" height="26" fill="none" xmlns="http://www.w3.org/2000/svg"><g clip-path="url(#clip0)"><path d="M45.816 12.692v4.642c-.933.526-2.273.765-3.589.765-1.579 0-3.158-.717-3.398-2.105-.12-.67-.167-1.46-.191-2.25V9.008l-2.8-.359v5.097c0 .98.12 1.938.335 2.751.43 1.723 3.254 2.609 6.054 2.609 1.316 0 2.632-.168 3.709-.575l2.68.36V8.814h-2.8v3.877zm8.328-3.877h-3.23l3.325 5.743-3.063 4.379h1.317l2.345-3.35 1.914 3.35h3.254l-3.398-5.886 1.46-2.106 1.483-2.13H58.26l-2.249 3.207-1.866-3.207zm15.481 2.633l5.24 7.49h1.963a.386.386 0 0 0 .071-.216l.503-9.906h-2.8l-.382 7.346L69.697 9.7l-.071-.096-4.57 6.557-.383-7.346h-2.8l.503 9.906c0 .072.024.143.047.215h1.986l5.217-7.49h-.001zm12.97 7.49v-9.93l-2.8-.384v10.313h2.8zm.215-13.975c-.24-.957-2.992-.957-3.23-.024a3.872 3.872 0 0 0 0 1.484c.239.91 3.014.933 3.23-.048.12-.407.12-.981 0-1.412zm4.857 9.883V10.18c.933-.503 2.25-.766 3.59-.766 1.579 0 3.158.742 3.397 2.13.12.646.168 1.435.168 2.225v5.168h2.8V13.77c0-.957-.096-1.938-.312-2.752-.43-1.723-3.254-2.608-6.054-2.608-1.46 0-2.895.215-4.02.694l-2.369-.311v10.145h2.8v-4.091zm24.933 3.732v-4.881c0-.933-.095-1.89-.287-2.68-.455-1.795-3.278-2.68-6.101-2.68-2.824 0-5.624.885-6.054 2.632-.216.838-.311 1.819-.311 2.776 0 .98.095 1.938.311 2.751.454 1.723 3.254 2.609 6.077 2.609 1.245 0 2.513-.168 3.566-.527 0 .694-.072 1.364-.168 1.938-.239 1.436-1.842 2.154-3.421 2.154v1.005c2.823 0 5.646-.886 6.077-2.632.192-.742.287-1.603.311-2.465zm-2.799-4.857v3.613c-.933.526-2.25.766-3.566.766-1.579 0-3.182-.718-3.421-2.106-.12-.67-.168-1.46-.168-2.249 0-.79.048-1.58.168-2.25.239-1.411 1.842-2.129 3.398-2.129 1.579 0 3.158.718 3.421 2.154.12.67.168 1.435.168 2.2z" fill="#1B1B1B"/><path fill-rule="evenodd" clip-rule="evenodd" d="M15.436 10.46C17.876 7.096 20.56 3.816 20.072 0c5.57 3.59 4.69 8.995-.109 12.396 2.107.028 4.145-2.547 4.323-4.378 4.47 2.725.633 7.144-2.38 8.702 1.304-.152 2.59-.787 3.785-1.646 2.14 3.234-1.514 5.156-3.395 5.04l2.544.436c-1.084 3.388-3.5 5.286-7.354 5.3.738-.497 1.35-1.216 1.804-2.087.75-1.44 1.06-3.31.758-5.27v-.002c-.29-1.869-1.272-4.048-2.643-5.886a13.718 13.718 0 0 0-1.97-2.144h.001z" fill="url(#paint0_linear)"/><path d="M13.558 14.392c-.088-.819-.49-2.734-.983-4.951 3.354 1.317 6.31 5.802 6.826 9.15.562 3.634-1.14 6.909-3.808 7.32-4.034.625-6.55-2.167-8.315-5.445C4.957 16.564 3.639 15.106 0 9.747c3.112-.996 6.605 1.227 8.33 3.245-.189-1.221-1.397-2.447-2.591-5.227 3.346-.332 6.853 3.734 7.82 6.626h-.001z" fill="#83C738"/></g><defs><linearGradient id="paint0_linear" x1="21.432" y1="6.952" x2="22.863" y2="23.969" gradientUnits="userSpaceOnUse"><stop stop-color="#00AAE2"/><stop offset="1" stop-color="#0096DB"/></linearGradient><clipPath id="clip0"><path fill="#fff" d="M0 0H112.6V26H0z"/></clipPath></defs></svg>