<svg xmlns="http://www.w3.org/2000/svg" fill="none" viewBox="0 0 155 26"><g clip-path="url(#a)"><path fill="#4490CD" d="M95.3.3h5.5v4.6h-5.5V.3zm7.6 15.9h5.4v4.7h-5.4v-4.7z"/><path fill="#07122b" d="M42 12.7v8.1h-5.1v-1a5 5 0 0 1-3.6 1.4c-3 0-5.4-1.9-5.4-4.5 0-2.7 2.6-4.6 6-4.6 1 0 2 .3 3 .7v-.1c0-1.2-1-2-2.9-2a7 7 0 0 0-3.4.9L29 8.3c2-1 4-1.6 6.4-1.6 3.6 0 6.5 2.2 6.5 6zm-5.1 3a5 5 0 0 0-2.3-.4c-1 0-1.7.5-1.7 1.3 0 .7.7 1.2 1.6 1.2 2.3 0 2.4-2 2.4-2zM58.6 12v8.8h-5v-7.6c0-1.3-1-2.3-2.2-2.3-1.2 0-2 1-2 2.2v7.7H44V6.7h5.3v1.7a5 5 0 0 1 4-1.7 5 5 0 0 1 5.2 5.3zm1.8 12.6l1-3.3a6 6 0 0 0 2 .7 2 2 0 0 0 1.6-.7l.1-.2-5.7-14.3h5.4l2.9 8.7 2.7-8.7h5.3L70.4 21c-1.2 3-3.2 4.8-5.6 4.8-1.6 0-3-.4-4.4-1.2zm35-17.9h5.3v14.1h-5.3v-14zm17.1 14.1l-9.8-14h5.6l2 2.9 2-3h5.5l-4.8 6.9 5 7.2h-5.5zm16.2-4.6l2.8 2.8a8.5 8.5 0 0 1-5.7 2.2c-4.4 0-7.6-3-7.6-7.3 0-4.2 3.2-7.1 7.4-7.1 4.5 0 7.2 3.1 7.2 8.4H123c.4 1.3 1.3 2.2 2.6 2.2 1.1 0 2.2-.5 3-1.2zm-5.6-3.7h4.8c-.4-1.1-1.2-1.9-2.3-1.9-1.2 0-2 .8-2.5 1.9zM134.8.2h5.3v20.6h-5.3V.2zm7.3 18.8l2-3c1.3 1 3.3 1.6 4.7 1.6 1 0 1.3-.2 1.3-.7 0-.4-.8-.7-2-1-2.5-.5-5.3-1.1-5.3-4.4 0-2.6 2.1-4.7 5.7-4.7 2 0 4 .7 5.8 1.8l-1.8 3.1a8.2 8.2 0 0 0-4-1.4c-.7 0-1.2.3-1.2.7 0 .5.6.6 2 .9 2.5.5 5.4 1.4 5.4 4.6 0 2.9-2.3 4.7-6 4.7a11 11 0 0 1-6.6-2.1zM18.8 6.8c-5 0-5.3 2.3-5.3 2.3s-1-2.3-5-2.3c-2.7 0-3.2 1-3.2 1V6.7H0v14.1h5.3V13c0-1.5 1.4-2.3 2.6-2.3 1.4 0 2.7.9 2.7 2.2v8h5l.1-7.6a2.6 2.6 0 0 1 2.6-2.7 2.7 2.7 0 0 1 2.8 2.7v7.6h5v-8.7c0-3.1-3-5.3-7.3-5.3zm74.8 7.1c0 4.5-3.2 7.5-7 7.5a5 5 0 0 1-3.9-1.5v5.9h-5.1v-19h5.1v1a5 5 0 0 1 3.9-1.5c3.8 0 7 3 7 7.6zm-4.7 0c0-2.1-1.3-3.5-3.2-3.5a3.4 3.4 0 0 0-3.4 3.5c0 2 1.6 3.5 3.4 3.5 1.9 0 3.2-1.4 3.2-3.5z"/></g><defs><clipPath id="a"><path fill="#fff" d="M0 0h154.7v26H0z"/></clipPath></defs></svg>