<svg width="93" height="26" fill="none"
  xmlns="http://www.w3.org/2000/svg">
  <path d="M4.808 17.288c-1.296 0-2.32-.352-3.072-1.056C1 15.528.632 14.4.632 12.848V4.376H3.92v7.776c0 .784.184 1.352.552 1.704.368.352.912.528 1.632.528.736 0 1.344-.256 1.824-.768.496-.528.744-1.176.744-1.944V4.376h3.288V17H9.152l-.24-1.656h-.168c-1.024 1.296-2.336 1.944-3.936 1.944zM15.376 4.376h2.808l.24 1.656h.168c1.024-1.296 2.336-1.944 3.936-1.944 1.296 0 2.312.352 3.048 1.056.752.704 1.128 1.832 1.128 3.384V17h-3.288V9.224c0-.784-.184-1.352-.552-1.704-.368-.352-.912-.528-1.632-.528-.736 0-1.352.264-1.848.792-.48.512-.72 1.152-.72 1.92V17h-3.288V4.376zM29.952.536h6.816c2.512 0 4.448.688 5.808 2.064 1.376 1.36 2.064 3.416 2.064 6.168 0 2.752-.688 4.816-2.064 6.192-1.36 1.36-3.296 2.04-5.808 2.04h-6.816V.536zm6.816 13.512c1.408 0 2.472-.424 3.192-1.272.736-.864 1.104-2.08 1.104-3.648v-.72c0-1.568-.368-2.776-1.104-3.624-.72-.864-1.784-1.296-3.192-1.296h-3.336v10.56h3.336zm10.6-9.672h2.808l.264 2.04h.168c.272-.72.624-1.288 1.056-1.704.432-.416 1-.624 1.704-.624.464 0 .88.072 1.248.216v3.072h-.912c-1.072 0-1.848.296-2.328.888-.48.576-.72 1.456-.72 2.64V17h-3.288V4.376zM59.6 17.288a4.958 4.958 0 0 1-2.688-.768c-.816-.512-1.224-1.44-1.224-2.784 0-1.616.664-2.76 1.992-3.432 1.328-.688 3.208-1.032 5.64-1.032v-.888c0-.56-.128-.992-.384-1.296-.24-.304-.704-.456-1.392-.456-.736 0-1.264.112-1.584.336-.304.224-.456.488-.456.792v.36h-3.168a3.806 3.806 0 0 1-.024-.528c0-1.056.464-1.904 1.392-2.544.944-.64 2.192-.96 3.744-.96 1.728 0 3.016.352 3.864 1.056.864.704 1.296 1.72 1.296 3.048v5.568c0 .288.08.504.24.648a.93.93 0 0 0 .6.192h.672v2.304c-.512.256-1.144.384-1.896.384-.656 0-1.208-.144-1.656-.432a2.178 2.178 0 0 1-.888-1.224h-.144c-.464.544-1 .96-1.608 1.248-.592.272-1.368.408-2.328.408zm1.032-2.592c.928 0 1.608-.256 2.04-.768.432-.528.648-1.224.648-2.088v-.384c-2.864 0-4.296.64-4.296 1.92 0 .4.128.72.384.96.272.24.68.36 1.224.36zm7.792-10.32h3.384l1.368 5.184c.144.56.392 1.768.744 3.624h.096c.352-1.712.608-2.912.768-3.6l1.296-5.208h3.384l1.368 5.232c.192.736.456 1.928.792 3.576h.096a86.35 86.35 0 0 1 .768-3.576l1.296-5.232h3.12L83.16 17h-3.408l-1.44-6.024a79.862 79.862 0 0 1-.576-2.784h-.12a25.631 25.631 0 0 1-.504 2.76L75.6 17h-3.408L68.424 4.376z" fill="#000"/>
</svg>