<svg fill="none" height="26" width="86" xmlns="http://www.w3.org/2000/svg" xmlns:xlink="http://www.w3.org/1999/xlink"><linearGradient id="a" gradientUnits="userSpaceOnUse" x1="14.314" x2="9.319" y1="19.976" y2="5.479"><stop offset="0" stop-color="#0066d0"/><stop offset="1" stop-color="#10bb7a"/></linearGradient><clipPath id="b"><path d="m0 0h75.325v16h-75.325z" transform="translate(5 5)"/></clipPath><path d="m0 0h86v26h-86z" fill="#000"/><g clip-path="url(#b)"><path d="m28.185 15.118c-1.49 0-2.647-1.058-2.647-2.609 0-1.557 1.157-2.608 2.647-2.608 1.013 0 1.648.521 2.019 1.126l-.749.394a1.49 1.49 0 0 0 -1.27-.734c-.999 0-1.74.756-1.74 1.822 0 1.052.741 1.823 1.74 1.823.537 0 1.028-.318 1.27-.734l.756.378c-.385.606-1.013 1.142-2.026 1.142zm5.845 0c-1.512 0-2.579-1.103-2.579-2.609 0-1.504 1.067-2.608 2.579-2.608 1.505 0 2.579 1.104 2.579 2.608 0 1.506-1.074 2.61-2.579 2.61zm0-.786c1.013 0 1.671-.786 1.671-1.822 0-1.044-.658-1.823-1.671-1.823-1.02 0-1.671.78-1.671 1.823 0 1.036.65 1.822 1.671 1.822zm7.23.696h-3.11v-5.044h.885v4.265h2.223v.779zm4.582 0h-3.108v-5.044h.885v4.265h2.223zm6.08 0h-1.006l-.37-.976h-2.316l-.37.976h-1.006l1.981-5.044h1.104l1.982 5.044zm-1.626-1.754-.907-2.405-.908 2.405zm5.475 1.754h-2.549v-5.044h2.48c.931 0 1.438.575 1.438 1.286 0 .627-.409 1.058-.877 1.157.544.083.975.62.975 1.232 0 .787-.514 1.369-1.467 1.369zm-.242-2.964c.446 0 .703-.265.703-.65 0-.371-.257-.651-.703-.651h-1.422v1.3h1.422zm.038 2.185c.476 0 .764-.265.764-.703 0-.378-.266-.704-.764-.704h-1.46v1.407zm5.051.87c-.93 0-1.603-.333-2.057-.802l.5-.688c.34.37.892.703 1.595.703.726 0 1.006-.356 1.006-.696 0-1.058-2.934-.4-2.934-2.253 0-.84.726-1.482 1.838-1.482.778 0 1.421.257 1.883.71l-.5.658c-.4-.4-.937-.582-1.467-.582-.514 0-.846.257-.846.628 0 .945 2.934.363 2.934 2.238 0 .84-.599 1.565-1.952 1.565zm7.91-.091h-.885v-2.208h-2.623v2.208h-.885v-5.044h.885v2.057h2.623v-2.057h.885zm4.19.09c-1.513 0-2.58-1.103-2.58-2.609 0-1.504 1.067-2.608 2.58-2.608 1.504 0 2.578 1.104 2.578 2.608 0 1.506-1.074 2.61-2.579 2.61zm0-.786c1.013 0 1.67-.786 1.67-1.822 0-1.044-.657-1.823-1.67-1.823-1.021 0-1.672.78-1.672 1.823 0 1.036.65 1.822 1.671 1.822zm6.08.696h-.885v-4.265h-1.528v-.779h3.94v.779h-1.528v4.265z" fill="#fff"/><path d="m11.067 5.551c.704-.406 1.815-.406 2.52 0l4.56 2.634c.705.406 1.26 1.368 1.26 2.181v5.268c0 .813-.555 1.774-1.26 2.181l-4.56 2.634c-.705.406-1.816.406-2.52 0l-4.561-2.634c-.704-.407-1.26-1.369-1.26-2.181v-5.268c0-.812.556-1.774 1.26-2.181z" stroke="url(#a)" stroke-width="1.5"/><path d="m12.474 10.425c-1.525 0-2.707 1.067-2.707 2.63s1.182 2.63 2.707 2.63c.877 0 1.464-.38 1.845-.846a.433.433 0 0 0 .107-.297.485.485 0 0 0 -.496-.473.567.567 0 0 0 -.412.175c-.282.313-.663.48-1.044.48-.923 0-1.593-.708-1.593-1.669 0-.96.67-1.67 1.593-1.67.381 0 .755.184 1.044.489a.544.544 0 0 0 .397.175c.282 0 .519-.214.519-.488a.49.49 0 0 0 -.107-.297c-.39-.465-.977-.839-1.853-.839z" fill="#fff"/></g></svg>