<svg fill="none" height="26" width="27" xmlns="http://www.w3.org/2000/svg" xmlns:xlink="http://www.w3.org/1999/xlink"><linearGradient id="a" gradientUnits="userSpaceOnUse" x1="13.333" x2="13.333" y1="26"><stop offset="0" stop-color="#201f21"/><stop offset="1" stop-color="#313131"/></linearGradient><clipPath id="b"><path d="m0 0h26.667v26h-26.667z"/></clipPath><g clip-path="url(#b)"><path d="m26.666 0h-26.666v26h26.666z" fill="url(#a)"/><path d="m14.694 10.884c-.622 2.087-1.142 4.101-1.764 6.07-.354 1.111-.74 2.171-1.229 2.844-.538.757-1.548 1.481-2.76 1.481-.858 0-1.7-.404-1.7-1.296 0-.555.573-1.077 1.027-1.077.27 0 .404.152.471.27.421.757.825 1.194 1.01 1.194s.337-.252.64-1.346l2.202-8.14h-1.581c-.118-.353.05-.79.253-.875h1.581c.303-.976.659-1.956 1.164-2.848.757-1.363 1.968-2.44 3.634-2.44 1.262 0 1.784.606 1.784 1.38-.017.824-.74 1.245-1.077 1.245-.27 0-.404-.202-.488-.488-.286-1.077-.656-1.397-.875-1.397s-.555.404-.926 1.245c-.488 1.06-.81 2.193-1.112 3.303h1.918c.118.236.017.74-.27.875h-1.9z" fill="#fff"/></g></svg>