<svg width="27" height="26" fill="none" xmlns="http://www.w3.org/2000/svg"><g clip-path="url(#clip0)"><path d="M26.666 0H0v26h26.666V0z" fill="url(#paint0_linear)"/><path d="M14.694 10.884c-.622 2.087-1.142 4.101-1.764 6.07-.354 1.111-.74 2.171-1.229 2.844-.538.757-1.548 1.481-2.76 1.481-.858 0-1.7-.404-1.7-1.296 0-.555.573-1.077 1.027-1.077.27 0 .404.152.471.27.421.757.825 1.194 1.01 1.194.185 0 .337-.252.64-1.346l2.202-8.14H11.01c-.118-.353.05-.79.253-.875h1.581c.303-.976.659-1.956 1.164-2.848.757-1.363 1.968-2.44 3.634-2.44 1.262 0 1.784.606 1.784 1.38-.017.824-.74 1.245-1.077 1.245-.27 0-.404-.202-.488-.488-.286-1.077-.656-1.397-.875-1.397-.219 0-.555.404-.926 1.245-.488 1.06-.81 2.193-1.112 3.303h1.918c.118.236.017.74-.27.875h-1.9z" fill="#fff"/></g><defs><linearGradient id="paint0_linear" x1="13.333" y1="26" x2="13.333" gradientUnits="userSpaceOnUse"><stop stop-color="#201F21"/><stop offset="1" stop-color="#313131"/></linearGradient><clipPath id="clip0"><path fill="#fff" d="M0 0H26.667V26H0z"/></clipPath></defs></svg>