<svg width="180" height="26" fill="none" xmlns="http://www.w3.org/2000/svg"><g clip-path="url(#clip0)" fill="#222"><path d="M0 26h5.674c4.548 0 6.375-2.335 6.375-6.694V17.32c0-3.775-1.75-4.748-2.916-5.215 1.167-.467 2.411-1.558 2.411-5.216v-.973C11.544 2.102 9.833 0 5.324 0H0v26zm3.888-15.414V3.309H5.13c1.904 0 2.681.818 2.681 2.997v1.012c0 2.57-.7 3.269-2.915 3.269h-1.01v-.001zm0 3.231h1.009c2.565 0 3.188 1.09 3.188 3.62v1.752c0 2.53-.545 3.541-2.876 3.541H3.886v-8.913h.002zm18.685-3.386h-5.086V3.737h6.024V0H13.483v26H23.51v-3.697h-6.024v-8.174h5.086v-3.698zM29.103 26h4.005V3.737h3.884V0h-12.36v3.737h4.472V26z"/><path d="M40.234 26h4.003V3.737h4.512V0H36.702v3.737h3.532V26zm20.897 0h4.003V14.362h.933c2.332 0 2.72.74 2.72 3.893 0 1.906-.038 6.188.273 7.745h3.887c-.272-1.558-.235-5.8-.235-7.98 0-3.54-.893-4.63-2.37-5.33.972-.43 2.644-1.442 2.644-5.45v-.974C72.986 1.597 70.653 0 66.689 0h-5.56v26h.002zm4.003-22.692h1.126c2.295 0 2.683 1.207 2.683 3.232v.894c0 2.841-.777 3.62-2.876 3.62h-.933V3.308zM85.495 26c.777-5.605 1.905-12.65 2.488-18.098h.078c.582 5.332 1.593 12.26 2.331 18.098h4.08l3.81-26H94.24c-.582 5.877-1.36 13.895-1.671 18.955h-.078C91.986 13.234 90.897 5.877 90.12 0h-3.888c-.738 5.683-1.826 13.661-2.409 19.15h-.078c-.194-4.904-1.01-13.545-1.593-19.15h-4.277l3.576 26h4.043zm25.655 0h5.675c4.547 0 6.374-2.335 6.374-6.694V17.32c0-3.775-1.749-4.748-2.916-5.215 1.167-.467 2.411-1.558 2.411-5.216v-.973c0-3.814-1.711-5.916-6.219-5.916h-5.324v26h-.001zm3.888-15.414V3.309h1.243c1.904 0 2.681.818 2.681 2.997v1.012c0 2.57-.699 3.269-2.914 3.269h-1.01v-.001zm0 3.231h1.01c2.565 0 3.187 1.09 3.187 3.62v1.752c0 2.53-.545 3.541-2.876 3.541h-1.321v-8.913zM132.132 26h4.003V3.737h4.198V0h-12.36v3.737h4.159V26zm17.785 0v-8.757c0-.545.039-.817.077-.973L154.97 0h-4.276c-.971 4.165-2.137 8.835-2.643 11.91h-.039c-.427-2.84-1.594-7.707-2.642-11.91h-4.431l4.858 15.92c.078.35.116.544.116.855V26h4.004zm5.703 0h4.003V15.297h1.555c4.936 0 6.451-2.842 6.451-7.123V6.656c0-4.632-2.098-6.656-6.219-6.656h-5.79v26zm4.003-22.692h1.477c2.215 0 2.565 1.558 2.565 3.464v1.246c0 2.569-.427 4.009-2.954 4.009h-1.088V3.308zm18.694 7.123h-5.401V3.737h6.025V0h-10.028v26h10.106l.505-3.697h-6.608v-8.174h5.401v-3.698zm-119.384 0h-5.088V3.737h6.024V0H49.841v26h10.001v-3.697h-5.997v-8.174h5.088v-3.698zm49.626 0h-5.088V3.737h6.025V0H99.467v26h10.002v-3.697h-5.998v-8.174h5.088v-3.698z"/></g><defs><clipPath id="clip0"><path fill="#fff" d="M0 0H179.524V26H0z"/></clipPath></defs></svg>