<svg width="149" height="26" fill="none" xmlns="http://www.w3.org/2000/svg"><path d="M3.955 2.889h8.701a3.955 3.955 0 0 1 3.955 3.955v8.701a3.955 3.955 0 0 1-3.955 3.955H3.955A3.955 3.955 0 0 1 0 15.545V6.844a3.955 3.955 0 0 1 3.955-3.955z" fill="#FAC950"/><path d="M23.833 1.248h11.882v2.964H27.11v4.836h8.112v2.964H27.11v7.644h-3.276V1.248zm14.014 12.168c0-.988.178-1.885.533-2.691a6.294 6.294 0 0 1 1.443-2.067 6.361 6.361 0 0 1 2.158-1.326 7.49 7.49 0 0 1 2.652-.468c.936 0 1.82.156 2.652.468a6.36 6.36 0 0 1 2.158 1.326 6.291 6.291 0 0 1 1.443 2.067c.356.806.533 1.703.533 2.691 0 .988-.177 1.885-.533 2.691a6.291 6.291 0 0 1-1.443 2.067 6.36 6.36 0 0 1-2.158 1.326 7.49 7.49 0 0 1-2.652.468 7.49 7.49 0 0 1-2.652-.468 6.361 6.361 0 0 1-2.158-1.326 6.294 6.294 0 0 1-1.443-2.067c-.355-.806-.533-1.703-.533-2.691zm3.12 0c0 .485.083.953.247 1.404.165.45.408.85.728 1.196.321.347.707.624 1.157.832.451.208.962.312 1.534.312.572 0 1.084-.104 1.534-.312.451-.208.837-.485 1.157-.832.321-.347.564-.745.728-1.196.165-.45.247-.919.247-1.404 0-.485-.082-.953-.247-1.404a3.522 3.522 0 0 0-.728-1.196 3.625 3.625 0 0 0-1.157-.832c-.45-.208-.962-.312-1.534-.312-.572 0-1.083.104-1.534.312-.45.208-.836.485-1.157.832-.32.347-.563.745-.728 1.196-.164.45-.247.919-.247 1.404zm13.364-6.24h2.964v2.002h.052c.295-.624.746-1.166 1.352-1.625.607-.46 1.43-.689 2.47-.689.832 0 1.539.139 2.12.416.58.277 1.052.641 1.416 1.092.364.45.624.97.78 1.56.156.59.234 1.205.234 1.846v7.878H62.6v-6.318c0-.347-.017-.732-.052-1.157a4.15 4.15 0 0 0-.273-1.196 2.239 2.239 0 0 0-.689-.936c-.312-.251-.736-.377-1.274-.377-.52 0-.957.087-1.313.26-.355.173-.65.407-.884.702a2.793 2.793 0 0 0-.507 1.014c-.104.381-.156.78-.156 1.196v6.812h-3.12V7.176zM67.8 9.828V7.176h2.574V3.562h3.12v3.614h3.432v2.652h-3.432v5.46c0 .624.117 1.118.351 1.482.234.364.698.546 1.391.546.278 0 .581-.03.91-.091.33-.06.59-.16.78-.299v2.626c-.329.156-.732.264-1.209.325-.476.06-.897.091-1.26.091-.833 0-1.513-.091-2.042-.273-.528-.182-.944-.46-1.248-.832-.303-.373-.511-.836-.624-1.391a9.75 9.75 0 0 1-.169-1.924v-5.72H67.8zM89.04 5.2a3.022 3.022 0 0 0-1.392-1.105 4.857 4.857 0 0 0-1.833-.351c-.38 0-.75.043-1.105.13a3 3 0 0 0-.962.416c-.286.19-.515.438-.689.741-.173.303-.26.663-.26 1.079 0 .624.217 1.1.65 1.43.434.33.971.615 1.612.858.642.243 1.344.477 2.106.702a8.561 8.561 0 0 1 2.106.936 5.207 5.207 0 0 1 1.612 1.586c.434.659.65 1.534.65 2.626 0 .988-.182 1.85-.546 2.587a5.27 5.27 0 0 1-1.469 1.833c-.615.485-1.33.85-2.145 1.092a8.968 8.968 0 0 1-2.574.364 9.66 9.66 0 0 1-3.302-.572c-1.057-.381-1.967-1.023-2.73-1.924l2.47-2.392a4.13 4.13 0 0 0 1.573 1.417 4.418 4.418 0 0 0 3.211.351c.382-.104.728-.26 1.04-.468a2.44 2.44 0 0 0 .754-.793c.191-.32.286-.689.286-1.105 0-.676-.216-1.196-.65-1.56-.433-.364-.97-.672-1.612-.923a25.884 25.884 0 0 0-2.106-.715 8.87 8.87 0 0 1-2.106-.923 5.123 5.123 0 0 1-1.612-1.56c-.433-.65-.65-1.521-.65-2.613 0-.953.195-1.777.585-2.47.39-.693.902-1.27 1.534-1.729a6.697 6.697 0 0 1 2.171-1.027 9.32 9.32 0 0 1 5.317.104c.91.295 1.73.78 2.457 1.456L89.038 5.2zm5.615 1.976h2.964v1.872h.052c.451-.763 1.058-1.317 1.82-1.664a5.896 5.896 0 0 1 2.47-.52c.954 0 1.812.169 2.574.507a5.756 5.756 0 0 1 1.95 1.391c.538.59.945 1.283 1.222 2.08.278.797.416 1.655.416 2.574a7.36 7.36 0 0 1-.442 2.574 6.383 6.383 0 0 1-1.235 2.08 5.68 5.68 0 0 1-1.911 1.391 5.847 5.847 0 0 1-2.444.507 6.03 6.03 0 0 1-1.56-.182 5.383 5.383 0 0 1-1.196-.468 4.787 4.787 0 0 1-.884-.611 4.447 4.447 0 0 1-.598-.637h-.078v7.514h-3.12V7.176zm10.348 6.24c0-.485-.082-.953-.247-1.404a3.508 3.508 0 0 0-.728-1.196 3.615 3.615 0 0 0-1.157-.832c-.45-.208-.962-.312-1.534-.312-.572 0-1.083.104-1.534.312-.45.208-.836.485-1.157.832-.32.347-.563.745-.728 1.196-.164.45-.247.919-.247 1.404 0 .485.083.953.247 1.404.165.45.408.85.728 1.196.321.347.707.624 1.157.832.451.208.962.312 1.534.312.572 0 1.084-.104 1.534-.312a3.615 3.615 0 0 0 1.157-.832c.321-.347.564-.745.728-1.196.165-.45.247-.919.247-1.404zm13.832 4.524h-.078c-.45.71-1.022 1.226-1.716 1.547a5.383 5.383 0 0 1-2.288.481 6.075 6.075 0 0 1-1.677-.234 4.545 4.545 0 0 1-1.456-.702 3.614 3.614 0 0 1-1.027-1.17c-.26-.468-.39-1.014-.39-1.638 0-.676.122-1.252.364-1.729.243-.477.568-.875.975-1.196.408-.32.88-.576 1.417-.767a9.732 9.732 0 0 1 1.677-.429 14.89 14.89 0 0 1 1.755-.182c.59-.026 1.144-.039 1.664-.039h.78v-.338c0-.78-.268-1.365-.806-1.755-.537-.39-1.222-.585-2.054-.585a4.83 4.83 0 0 0-1.846.351 4.673 4.673 0 0 0-1.482.949l-1.638-1.638a6.055 6.055 0 0 1 2.431-1.534 8.953 8.953 0 0 1 2.873-.468c.884 0 1.63.1 2.236.299.607.2 1.11.455 1.508.767.399.312.707.672.923 1.079.217.407.373.819.468 1.235.096.416.152.819.169 1.209.018.39.026.732.026 1.027v7.176h-2.808V17.94zm-.182-3.874h-.65c-.433 0-.918.017-1.456.052a7.65 7.65 0 0 0-1.521.247 3.49 3.49 0 0 0-1.209.572c-.329.251-.494.602-.494 1.053 0 .295.065.542.195.741.13.2.299.368.507.507.208.139.442.238.702.299.26.06.52.091.78.091 1.075 0 1.868-.256 2.379-.767.512-.511.767-1.209.767-2.093v-.702zm6.344-6.89h3.12v1.976h.052c.347-.728.841-1.291 1.482-1.69.642-.399 1.378-.598 2.21-.598.191 0 .377.017.559.052.182.035.369.078.559.13v3.016a8.69 8.69 0 0 0-.767-.169 4.35 4.35 0 0 0-.741-.065c-.728 0-1.313.134-1.755.403-.442.269-.78.576-1.014.923-.234.347-.39.693-.468 1.04-.078.347-.117.607-.117.78v6.682h-3.12V7.176zM135.11 0h3.12v12.35l4.81-5.174h4.004l-5.356 5.668 5.694 6.812h-4.134l-4.966-6.37h-.052v6.37h-3.12V0z" fill="#383B3F"/></svg>