<svg width="53" height="26" fill="none" xmlns="http://www.w3.org/2000/svg"><path d="M12.57 25.545c-.593-.307-.89-.728-.89-1.262 0-.212.055-.336.18-.369a.526.526 0 0 1 .379.033c.282.119.542.22.78.303.22.077.444.14.672.19.202.043.406.072.612.086.202.015.423.022.661.022.907 0 1.728-.2 2.465-.601a6.674 6.674 0 0 0 1.956-1.631 10.448 10.448 0 0 0 1.463-2.4c.418-.94.762-1.91 1.03-2.904.276-1.035.488-2.086.633-3.148.148-1.08.246-2.133.293-3.158l-1.501 3.012c-.253.491-.457.856-.612 1.094-.156.239-.336.358-.542.358a.922.922 0 0 1-.407-.108 1.225 1.225 0 0 1-.4-.336 1.952 1.952 0 0 1-.304-.57 2.366 2.366 0 0 1-.124-.796c.004-.471.042-.942.113-1.408.073-.52.15-1.033.233-1.539l.228-1.36c.053-.288.086-.58.097-.872l-.016-.228-2.416 4.86c-.13.27-.293.52-.488.748a.692.692 0 0 1-.52.233c-.31 0-.578-.208-.802-.623-.224-.416-.336-.907-.336-1.474l.011-.368.043-.596.104-.954.178-1.479c.072-.668.143-1.27.212-1.804.06-.438.095-.88.103-1.322 0-.25-.028-.433-.07-.558l-2.347 7.173c-.206.593-.383 1.017-.53 1.273a.731.731 0 0 1-.673.38 1.084 1.084 0 0 1-.639-.217 1.777 1.777 0 0 1-.515-.58 3.613 3.613 0 0 1-.34-.867 4.174 4.174 0 0 1-.136-1.083c0-.85.025-1.68.075-2.492.051-.813.078-1.554.082-2.222 0-.64-.045-1.018-.136-1.137-.072.205-.15.455-.233.747-.083.29-.173.627-.27 1.013-.098.387-.206.838-.326 1.355-.119.516-.252 1.107-.4 1.771l-.689 3.397a8.481 8.481 0 0 1-.417 1.295 4.2 4.2 0 0 1-.655 1.105 2.97 2.97 0 0 1-1.008.77c-.4.195-.885.292-1.452.292a7.275 7.275 0 0 1-1.907-.249 5.695 5.695 0 0 1-1.587-.677A3.673 3.673 0 0 1 .4 14.633a2.276 2.276 0 0 1-.4-1.305c0-.52.2-.963.6-1.328.405-.364.986-.547 1.745-.547.442-.007.882.054 1.306.179.34.1.663.25.959.444.232.15.435.343.596.57.133.201.2.384.2.546 0 .271-.143.405-.428.401a6.321 6.321 0 0 1-.834-.076 7.955 7.955 0 0 0-1.127-.075 3.82 3.82 0 0 0-1.3.2c.163.223.36.418.585.58.268.204.559.376.866.514.336.152.684.275 1.04.369.347.093.704.14 1.063.14.4 0 .72-.095.959-.286.238-.192.442-.511.612-.96.173-.447.334-1.043.482-1.787l.558-2.769c.314-1.517.598-2.734.85-3.651.253-.918.492-1.618.716-2.102.22-.484.437-.804.65-.96.183-.146.41-.228.644-.232.255.004.503.081.716.222.25.16.465.368.634.612.197.286.347.603.444.937.114.381.164.779.146 1.176l-.2 4.6 1.928-6.03c.145-.448.275-.81.39-1.084.084-.222.197-.431.336-.623a.985.985 0 0 1 .33-.293.975.975 0 0 1 .418-.075c.22.008.435.073.623.19.238.137.45.315.629.525.2.238.358.51.465.802.122.329.183.678.18 1.029 0 .22-.012.466-.033.737-.022.27-.058.614-.109 1.03l-.206 1.538c-.083.61-.175 1.369-.276 2.275l1.382-2.763c.18-.361.334-.65.46-.867.096-.172.213-.332.347-.476a.791.791 0 0 1 .287-.2.91.91 0 0 1 .293-.05c.151 0 .238.096.26.287.133.028.26.075.379.141.2.113.377.264.52.445.149.185.27.391.358.612.088.213.134.441.135.672 0 .31-.056.776-.168 1.397-.112.622-.296 1.555-.552 2.801l1.029-2.075c.235-.462.419-.783.553-.964.133-.18.328-.27.585-.27a.921.921 0 0 1 .655.27c.204.204.357.453.45.726.12.344.202.7.244 1.062.054.422.081.847.081 1.273a21.475 21.475 0 0 1-.25 3.197 19.98 19.98 0 0 1-.747 3.18 15.658 15.658 0 0 1-1.284 2.926 10.426 10.426 0 0 1-1.842 2.383 8.365 8.365 0 0 1-2.422 1.626c-.906.4-1.918.601-3.034.601-.939 0-1.706-.152-2.302-.455h-.006zm13.37-9.703c-.083-.112-.124-.28-.124-.504 0-.105.018-.325.054-.661l.146-1.355.537-4.415c-.35.021-.7.036-1.051.043-.195 0-.325-.038-.401-.108a.39.39 0 0 1-.109-.293c0-.3.148-.561.445-.785.296-.224.727-.35 1.294-.38l.358-2.893h-2.481c-.276.02-.553-.02-.813-.113a1.827 1.827 0 0 1-.569-.336 1.458 1.458 0 0 1-.336-.423.883.883 0 0 1-.108-.38c0-.252.092-.41.276-.47.215-.064.437-.1.661-.109l3.614-.114c.061-.505.12-.926.179-1.262.04-.266.108-.527.2-.78a.974.974 0 0 1 .25-.39.444.444 0 0 1 .286-.114c.387 0 .685.235.894.704.21.47.33 1.062.358 1.777l8.956-.249c.21-.01.373 0 .487.054.114.054.184.185.184.396-.005.2-.051.397-.135.58a1.948 1.948 0 0 1-.39.58 2.041 2.041 0 0 1-.612.433 1.82 1.82 0 0 1-.786.168h-.834l-1.891.01-2.498.022c-.91.01-1.795.016-2.654.016l-.385 2.856 1.24-.044 1.16-.043.883-.033.401-.01c.061 0 .098.034.108.102.242.022.412.112.51.271.099.158.162.336.184.52a7.32 7.32 0 0 1 2.02-1.68c.325-.18.666-.329 1.02-.443.279-.096.57-.15.866-.157.347 0 .63.182.85.547.221.365.333.807.337 1.327 0 .394-.029.787-.087 1.176-.056.465-.123.93-.2 1.392l.899-1.788c.227-.444.413-.789.558-1.035.144-.245.267-.408.368-.487a.564.564 0 0 1 .358-.125c.155.003.307.036.45.098.167.07.32.17.455.292.145.131.262.29.346.466.092.193.138.404.136.618 0 .191-.015.448-.044.77l-.108 1.061-.152 1.225c-.05.433-.104.85-.162 1.251.191-.296.41-.646.655-1.051.246-.405.488-.806.726-1.203.239-.4.456-.776.65-1.127.181-.325.322-.588.423-.79l.022-.136.27-1.831-1.316-.114c-.404-.029-.722-.06-.953-.092a4.343 4.343 0 0 1-.51-.087c-.113-.032-.184-.065-.216-.108a.276.276 0 0 1-.044-.163c0-.177.143-.38.428-.612.286-.231.746-.347 1.382-.347l1.474-.021.092-.515c.063-.36.155-.712.276-1.057.116-.342.25-.678.4-1.007.12-.269.275-.52.461-.748.163-.195.318-.292.466-.292.239 0 .383.1.434.303.053.194.066.397.038.596l-.293 2.698 2.059-.043c.162 0 .27.038.33.119.065.096.097.21.092.325a1.16 1.16 0 0 1-.108.504 1.66 1.66 0 0 1-.683.726.921.921 0 0 1-.433.108l-.64-.01a12.634 12.634 0 0 1-.774-.055l-.2 1.967c-.062.625-.112 1.19-.152 1.696-.047.505-.082.94-.103 1.305a15.05 15.05 0 0 0-.033.775c.18-.152.407-.403.678-.753.278-.347.58-.751.904-1.214.329-.462.669-.957 1.019-1.484.35-.528.68-1.039.991-1.533l.055-.082c.245-.77.556-1.356.931-1.76.401-.434.773-.65 1.116-.65.253 0 .443.068.57.205.124.136.189.314.189.537a.945.945 0 0 1-.044.276 2.398 2.398 0 0 1-.167.38 6.552 6.552 0 0 1-.347.573c-.148.22-.342.488-.58.802.253.849.475 1.683.666 2.503.19.78.288 1.58.293 2.384 0 .806-.182 1.466-.547 1.983-.365.517-.845.771-1.441.764a2.047 2.047 0 0 1-1.22-.39c-.36-.26-.541-.578-.541-.954a.764.764 0 0 1 .098-.379c.085-.141.19-.269.314-.38.14-.133.32-.285.536-.454l.791-.618a73.786 73.786 0 0 0-.244-1.273c-.084-.42-.188-.836-.314-1.246l-.016-.054c-.813 1.444-1.571 2.548-2.276 3.31-.704.77-1.31 1.152-1.82 1.149-.225 0-.447-.056-.645-.163a1.787 1.787 0 0 1-.536-.434 2.228 2.228 0 0 1-.358-.606 1.792 1.792 0 0 1-.135-.672l.01-.569.028-.488c-.163.34-.334.683-.515 1.03l-.525.964c-.163.3-.316.57-.46.807a6.17 6.17 0 0 1-.348.537c-.22.296-.393.514-.52.655a.617.617 0 0 1-.482.217 1.233 1.233 0 0 1-.471-.108 1.55 1.55 0 0 1-.445-.271 1.56 1.56 0 0 1-.336-.428 1.142 1.142 0 0 1-.135-.558c.01-.258.034-.514.07-.77.044-.364.096-.756.158-1.175.061-.42.113-.824.157-1.214.038-.307.06-.617.065-.926l-1.22 2.465a19.247 19.247 0 0 1-.747 1.409c-.195.321-.343.529-.444.623a.466.466 0 0 1-.314.146c-.253 0-.48-.12-.683-.358a1.3 1.3 0 0 1-.298-.867c0-.285.025-.711.076-1.278.05-.567.106-1.15.168-1.75.058-.603.117-1.169.179-1.696.061-.527.09-.912.086-1.154a3.63 3.63 0 0 0-.368.163l-.466.227a4.808 4.808 0 0 0-.434.26 3.152 3.152 0 0 0-.314.222v.011c.03.18.054.44.076.78s.033.629.033.867c.002.601-.061 1.2-.19 1.788a5.203 5.203 0 0 1-.569 1.5c-.231.41-.552.761-.937 1.03a2.248 2.248 0 0 1-1.295.38c-.61 0-1.102-.206-1.474-.618-.372-.412-.558-1.019-.558-1.82a6.44 6.44 0 0 1 .255-1.707c.152-.563.352-1.112.596-1.642l.049-.103h-.055l-1.023.05c-.358.014-.723.035-1.095.064l-.515 3.44a13.42 13.42 0 0 1-.368 1.82c-.14.485-.289.871-.444 1.16-.155.29-.323.495-.504.618a.997.997 0 0 1-.558.179c-.211 0-.352-.055-.433-.168zm6.507-5.261a3.953 3.953 0 0 0-.357 1.642c0 .296.036.53.108.704.081.168.19.255.341.255.18 0 .333-.161.455-.483.123-.321.186-.845.19-1.57 0-.387-.01-.77-.032-1.15-.022-.379-.033-.659-.033-.84-.21.434-.433.915-.672 1.442z" fill="#0AF"/></svg>