<svg width="24" height="24" viewBox="0 0 24 24" fill="none" xmlns="http://www.w3.org/2000/svg">
<path fill-rule="evenodd" clip-rule="evenodd" d="M8.79923 0C7.47255 0.000978593 6.39884 1.07547 6.39982 2.39951C6.39884 3.72355 7.47353 4.79804 8.80022 4.79902H11.2006V2.40049C11.2016 1.07645 10.1269 0.00195719 8.79923 0C8.80022 0 8.80022 0 8.79923 0V0ZM8.79923 6.4H2.40015C1.07346 6.40098 -0.00122201 7.47547 -0.000241461 8.79951C-0.00220257 10.1235 1.07248 11.198 2.39917 11.2H8.79923C10.1259 11.199 11.2006 10.1245 11.1996 8.80049C11.2006 7.47547 10.1259 6.40098 8.79923 6.4V6.4Z" fill="#36C5F0"/>
<path fill-rule="evenodd" clip-rule="evenodd" d="M24 8.79951C24.001 7.47547 22.9263 6.40098 21.5996 6.4C20.273 6.40098 19.1983 7.47547 19.1993 8.79951V11.2H21.5996C22.9263 11.199 24.001 10.1245 24 8.79951ZM17.6 8.79951V2.39951C17.601 1.07645 16.5273 0.00195719 15.2006 0C13.8739 0.000978593 12.7992 1.07547 12.8002 2.39951V8.79951C12.7982 10.1235 13.8729 11.198 15.1996 11.2C16.5263 11.199 17.601 10.1245 17.6 8.79951Z" fill="#2EB67D"/>
<path fill-rule="evenodd" clip-rule="evenodd" d="M15.1996 24C16.5263 23.999 17.601 22.9245 17.6 21.6005C17.601 20.2765 16.5263 19.202 15.1996 19.201H12.7992V21.6005C12.7982 22.9235 13.8729 23.998 15.1996 24ZM15.1996 17.599H21.5997C22.9263 17.598 24.001 16.5235 24 15.1995C24.002 13.8755 22.9273 12.801 21.6006 12.799H15.2006C13.8739 12.8 12.7992 13.8745 12.8002 15.1985C12.7992 16.5235 13.8729 17.598 15.1996 17.599V17.599Z" fill="#ECB22E"/>
<path fill-rule="evenodd" clip-rule="evenodd" d="M6.70465e-07 15.1995C-0.000979882 16.5235 1.07371 17.598 2.40039 17.599C3.72708 17.598 4.80177 16.5235 4.80079 15.1995V12.8H2.40039C1.07371 12.801 -0.000979882 13.8755 6.70465e-07 15.1995ZM6.40007 15.1995V21.5995C6.3981 22.9235 7.47279 23.998 8.79948 24C10.1262 23.999 11.2009 22.9245 11.1999 21.6005V15.2014C11.2018 13.8774 10.1271 12.8029 8.80046 12.801C7.47279 12.801 6.39909 13.8755 6.40007 15.1995C6.40007 15.2005 6.40007 15.1995 6.40007 15.1995Z" fill="#E01E5A"/>
</svg>
