<svg fill="none" height="18" width="74" xmlns="http://www.w3.org/2000/svg"><path d="m9.807 10.608h-6.188v6.392h-3.223v-15.64h10.184v2.61h-6.96v4.039h6.187v2.6zm7.551 6.607c-1.704 0-3.093-.523-4.168-1.569-1.067-1.045-1.6-2.438-1.6-4.178v-.301c0-1.167.225-2.21.677-3.126.45-.924 1.088-1.633 1.912-2.127.83-.501 1.776-.752 2.836-.752 1.59 0 2.84.501 3.749 1.504.916 1.003 1.375 2.424 1.375 4.265v1.267h-7.402c.1.76.401 1.368.903 1.826.508.459 1.15.688 1.922.688 1.197 0 2.131-.433 2.804-1.3l1.526 1.708c-.466.659-1.096 1.175-1.891 1.547-.795.365-1.676.548-2.643.548zm-.354-9.54c-.616 0-1.117.208-1.504.624-.38.415-.623 1.01-.73 1.783h4.318v-.247c-.014-.688-.2-1.217-.559-1.59-.358-.38-.866-.57-1.525-.57zm13.642 9.325a3.447 3.447 0 0 1 -.311-1.042c-.752.838-1.73 1.257-2.933 1.257-1.138 0-2.084-.33-2.836-.988-.744-.66-1.117-1.49-1.117-2.493 0-1.231.455-2.177 1.364-2.836.917-.658 2.238-.991 3.964-.999h1.43v-.666c0-.537-.14-.966-.42-1.289-.272-.322-.705-.483-1.3-.483-.522 0-.934.125-1.235.376-.294.25-.44.594-.44 1.031h-3.105c0-.673.208-1.296.623-1.869s1.003-1.02 1.762-1.343c.759-.33 1.611-.494 2.556-.494 1.433 0 2.568.362 3.406 1.085.845.716 1.267 1.726 1.267 3.03v5.038c.008 1.102.161 1.937.462 2.502v.183zm-2.567-2.16c.458 0 .881-.1 1.268-.3.386-.208.673-.483.86-.827v-1.998h-1.161c-1.554 0-2.381.537-2.482 1.611l-.01.183c0 .386.136.705.408.956.272.25.644.376 1.117.376zm11.344-12.32v2.857h1.987v2.277h-1.987v5.801c0 .43.082.738.247.924s.48.28.945.28c.344 0 .648-.026.913-.076v2.353a6.39 6.39 0 0 1 -1.88.279c-2.177 0-3.287-1.1-3.33-3.298v-6.263h-1.697v-2.277h1.697v-2.857zm6.746 4.125c.824-.989 1.858-1.483 3.104-1.483 2.521 0 3.8 1.465 3.835 4.394v7.444h-3.104v-7.358c0-.666-.143-1.157-.43-1.472-.286-.322-.762-.483-1.428-.483-.91 0-1.569.35-1.977 1.052v8.261h-3.104v-16.5h3.104zm14.63 10.57c-1.704 0-3.093-.523-4.167-1.569-1.067-1.045-1.6-2.438-1.6-4.178v-.301c0-1.167.225-2.21.676-3.126.451-.924 1.089-1.633 1.912-2.127.83-.501 1.776-.752 2.836-.752 1.59 0 2.84.501 3.75 1.504.916 1.003 1.374 2.424 1.374 4.265v1.267h-7.4c.1.76.4 1.368.902 1.826.508.459 1.15.688 1.923.688 1.196 0 2.13-.433 2.804-1.3l1.525 1.708c-.465.659-1.096 1.175-1.89 1.547-.795.365-1.676.548-2.643.548zm-.354-9.54c-.616 0-1.117.208-1.504.624-.38.415-.623 1.01-.73 1.783h4.318v-.247c-.014-.688-.2-1.217-.558-1.59-.358-.38-.867-.57-1.526-.57zm13.439.613a8.432 8.432 0 0 0 -1.117-.086c-1.175 0-1.945.398-2.31 1.193v7.605h-3.104v-11.623h2.932l.086 1.386c.623-1.067 1.486-1.6 2.589-1.6.344 0 .666.046.967.139z" fill="#000"/></svg>