<svg width="155" height="26" fill="none" xmlns="http://www.w3.org/2000/svg"><g clip-path="url(#clip0)"><path d="M95.333.27h5.436v4.668h-5.436V.27zm7.526 15.933h5.436v4.673h-5.436v-4.673z" fill="#4490CD"/><path d="M41.948 12.682v8.156H36.89v-.992a5.501 5.501 0 0 1-3.636 1.311c-3.036 0-5.387-1.82-5.387-4.415 0-2.709 2.622-4.605 6.042-4.605a8.272 8.272 0 0 1 2.99.615v-.07c0-1.203-1.069-1.896-2.9-1.896a7.496 7.496 0 0 0-3.363.774l-1.668-3.237c1.967-.964 4.076-1.625 6.452-1.625 3.574-.019 6.528 2.192 6.528 5.984zm-5.058 3.096a5.04 5.04 0 0 0-2.242-.507c-1.011 0-1.778.561-1.778 1.338 0 .721.71 1.23 1.67 1.23 2.296-.01 2.35-2.061 2.35-2.061zm21.68-3.749v8.8h-5.028v-7.605c0-1.338-.875-2.276-2.133-2.276-1.174 0-2.022.883-2.022 2.116v7.766h-5.28V6.687h5.277v1.704c.875-1.07 2.297-1.712 3.993-1.712 3.033 0 5.194 2.21 5.194 5.35zm1.797 12.606l1.057-3.38c.794.463 1.615.79 1.998.79a2.023 2.023 0 0 0 1.612-.79l.081-.19-5.707-14.28h5.386l2.898 8.692 2.734-8.692h5.305l-5.338 14.199c-1.147 3.023-3.226 4.794-5.631 4.794a9.612 9.612 0 0 1-4.395-1.143zM95.398 6.741h5.273v14.086h-5.273V6.74zm17.058 14.088l-9.763-14.085h5.58l2.022 2.915 2.025-2.915h5.435l-4.753 6.81 5.033 7.275h-5.579zm16.226-4.626l2.823 2.844c-1.225 1.249-3.571 2.124-5.677 2.124-4.398 0-7.611-3.002-7.611-7.227 0-4.226 3.145-7.146 7.412-7.146 4.425 0 7.17 3.107 7.17 8.397h-9.757c.348 1.303 1.28 2.167 2.587 2.167a5.105 5.105 0 0 0 3.053-1.159zm-5.562-3.706h4.746c-.321-1.143-1.12-1.896-2.24-1.896-1.239.008-2.117.753-2.506 1.896zM134.824.222h5.278V20.83h-5.278V.222zm7.322 18.863l1.919-3.11c1.334.932 3.308 1.626 4.772 1.626.96 0 1.308-.238 1.308-.69 0-.453-.799-.746-2.079-1.011-2.506-.542-5.306-1.143-5.306-4.383 0-2.657 2.158-4.73 5.759-4.73 2.054.038 4.053.665 5.757 1.807l-1.732 3.134c-1.146-.745-2.717-1.46-4.025-1.46-.72 0-1.201.371-1.201.77 0 .452.614.541 2 .85 2.506.558 5.385 1.382 5.385 4.624 0 2.841-2.267 4.648-5.999 4.648-2.402-.003-4.881-.772-6.558-2.075zM18.754 6.785c-4.912 0-5.224 2.291-5.224 2.313 0-.03-.943-2.313-5.124-2.313-2.614 0-3.136 1.035-3.128 1.04v-1.14H0v14.123h5.278v-7.904c0-1.533 1.38-2.316 2.664-2.316 1.326 0 2.63.886 2.63 2.232.028.062-.048 7.988-.048 7.988h5.137s.062-7.403.062-7.563a2.613 2.613 0 0 1 .732-1.903 2.632 2.632 0 0 1 1.88-.806c.72 0 1.412.286 1.922.794s.796 1.197.796 1.915l-.04 7.563h5.03v-8.714c0-3.107-2.9-5.31-7.29-5.31zm74.829 7.091c0 4.518-3.191 7.558-6.983 7.558-1.853 0-2.788-.523-3.9-1.517v5.861h-5.107V6.747h5.123v1.138c1.112-.997 2.03-1.563 3.884-1.563 3.792 0 6.983 3.066 6.983 7.554zm-4.645 0c0-2.077-1.384-3.521-3.278-3.521-1.761 0-3.335 1.433-3.335 3.521 0 2.089 1.574 3.522 3.335 3.522 1.894-.011 3.278-1.414 3.278-3.522z" fill="#fff"/></g><defs><clipPath id="clip0"><path fill="#fff" d="M0 0H154.7V26H0z"/></clipPath></defs></svg>